<?xml version="1.0" encoding="UTF-8"?><svg id="_이어_1" xmlns="http://www.w3.org/2000/svg" viewBox="0 0 28 84"><defs><style>.cls-1{fill:#888988;}.cls-2{fill:#2bb6a8;}.cls-3{fill:#252727;}</style></defs><g><circle class="cls-1" cx="22.52" cy="5.45" r="2.71"/><circle class="cls-1" cx="5.48" cy="22.49" r="2.71"/><path class="cls-1" d="M10.7,18.02c-.19,0-.38-.07-.53-.22-.29-.29-.29-.76,0-1.06l6.6-6.6c.29-.29,.76-.29,1.06,0,.29,.29,.29,.76,0,1.06l-6.6,6.6c-.15,.15-.34,.22-.53,.22Z"/></g><g><circle class="cls-2" cx="22.52" cy="33.45" r="2.71"/><circle class="cls-2" cx="5.48" cy="50.49" r="2.71"/><path class="cls-2" d="M10.7,46.02c-.19,0-.38-.07-.53-.22-.29-.29-.29-.76,0-1.06l6.6-6.6c.29-.29,.76-.29,1.06,0,.29,.29,.29,.76,0,1.06l-6.6,6.6c-.15,.15-.34,.22-.53,.22Z"/></g><g><rect class="cls-3" y="56" width="28" height="28" rx="2" ry="2"/><g><circle class="cls-2" cx="22.52" cy="61.48" r="2.71"/><circle class="cls-2" cx="5.48" cy="78.52" r="2.71"/><path class="cls-2" d="M10.7,74.05c-.19,0-.38-.07-.53-.22-.29-.29-.29-.76,0-1.06l6.6-6.6c.29-.29,.76-.29,1.06,0,.29,.29,.29,.76,0,1.06l-6.6,6.6c-.15,.15-.34,.22-.53,.22Z"/></g></g></svg>