<?xml version="1.0" encoding="UTF-8"?><svg id="_이어_1" xmlns="http://www.w3.org/2000/svg" viewBox="0 0 28 84"><defs><style>.cls-1{fill:#2bb6a8;}.cls-2{stroke:#898989;}.cls-2,.cls-3{fill:none;stroke-linecap:round;stroke-linejoin:round;}.cls-4{fill:#252727;}.cls-3{stroke:#2bb6a8;}.cls-5{fill:#898989;}.cls-6{fill:#333536;}</style></defs><g><rect class="cls-4" y="56.07" width="28" height="28" rx="2" ry="2"/><g><g><path class="cls-1" d="M21.02,79.36c0-1.31,1.06-2.37,2.37-2.37s2.37,1.06,2.37,2.37-1.06,2.37-2.37,2.37-2.37-1.06-2.37-2.37Z"/><path class="cls-1" d="M2.24,79.36c0-1.31,1.06-2.37,2.37-2.37s2.37,1.06,2.37,2.37-1.06,2.37-2.37,2.37-2.37-1.06-2.37-2.37Z"/></g><polyline class="cls-3" points="6.12 78.19 14.2 73.68 21.76 78.19"/><line class="cls-3" x1="14.2" y1="73.84" x2="14.2" y2="69.62"/></g><path class="cls-1" d="M14.16,57.64c-3.34,0-6.06,2.72-6.06,6.06s2.72,6.06,6.06,6.06,6.06-2.72,6.06-6.06-2.72-6.06-6.06-6.06Zm3.96,6.5c-1.76,0-3.52,1.76-3.52,3.52,0,.88-.88,.88-.88,0,0-1.76-1.76-3.52-3.52-3.52-.88,0-.88-.88,0-.88,1.76,0,3.52-1.76,3.52-3.52,0-.88,.88-.88,.88,0,0,1.76,1.76,3.52,3.52,3.52,.88,0,.88,.88,0,.88Z"/></g><g><rect class="cls-6" x=".05" y="28.07" width="28" height="28" rx="2" ry="2"/><g><g><path class="cls-1" d="M21.08,51.36c0-1.31,1.06-2.37,2.37-2.37s2.37,1.06,2.37,2.37-1.06,2.37-2.37,2.37-2.37-1.06-2.37-2.37Z"/><path class="cls-1" d="M2.29,51.36c0-1.31,1.06-2.37,2.37-2.37s2.37,1.06,2.37,2.37-1.06,2.37-2.37,2.37-2.37-1.06-2.37-2.37Z"/></g><polyline class="cls-3" points="6.18 50.19 14.25 45.68 21.82 50.19"/><line class="cls-3" x1="14.25" y1="45.84" x2="14.25" y2="41.62"/></g><path class="cls-1" d="M14.21,29.64c-3.34,0-6.06,2.72-6.06,6.06s2.72,6.06,6.06,6.06,6.06-2.72,6.06-6.06-2.72-6.06-6.06-6.06Zm3.96,6.5c-1.76,0-3.52,1.76-3.52,3.52,0,.88-.88,.88-.88,0,0-1.76-1.76-3.52-3.52-3.52-.88,0-.88-.88,0-.88,1.76,0,3.52-1.76,3.52-3.52,0-.88,.88-.88,.88,0,0,1.76,1.76,3.52,3.52,3.52,.88,0,.88,.88,0,.88Z"/></g><rect class="cls-6" y=".07" width="28" height="28" rx="2" ry="2"/><g><path class="cls-5" d="M21.02,23.36c0-1.31,1.06-2.37,2.37-2.37s2.37,1.06,2.37,2.37-1.06,2.37-2.37,2.37-2.37-1.06-2.37-2.37Z"/><path class="cls-5" d="M2.24,23.36c0-1.31,1.06-2.37,2.37-2.37s2.37,1.06,2.37,2.37-1.06,2.37-2.37,2.37-2.37-1.06-2.37-2.37Z"/></g><polyline class="cls-2" points="6.12 22.18 14.2 17.68 21.76 22.18"/><line class="cls-2" x1="14.2" y1="17.84" x2="14.2" y2="13.61"/><path class="cls-5" d="M14.16,1.64c-3.34,0-6.06,2.72-6.06,6.06s2.72,6.06,6.06,6.06,6.06-2.72,6.06-6.06S17.5,1.64,14.16,1.64Zm3.96,6.5c-1.76,0-3.52,1.76-3.52,3.52,0,.88-.88,.88-.88,0,0-1.76-1.76-3.52-3.52-3.52-.88,0-.88-.88,0-.88,1.76,0,3.52-1.76,3.52-3.52,0-.88,.88-.88,.88,0,0,1.76,1.76,3.52,3.52,3.52,.88,0,.88,.88,0,.88Z"/></svg>