<?xml version="1.0" encoding="UTF-8"?><svg id="a" xmlns="http://www.w3.org/2000/svg" viewBox="0 0 28 84"><defs><style>.b{fill:#2bb6a8;}.c{stroke:#898989;}.c,.d{fill:none;stroke-linecap:round;stroke-linejoin:round;}.d{stroke:#2bb6a8;}.e{fill:#898989;}.f{fill:#333536;}</style></defs><g><rect class="f" width="28" height="28" rx="2" ry="2"/><g><path class="e" d="M22.29,21.01h-.12V11.41h.12c.41,0,.71-.09,.91-.28,.2-.19,.3-.43,.3-.73s-.1-.53-.3-.71c-.2-.18-.5-.27-.9-.27h-2.9c-.4,0-.7,.09-.91,.28-.2,.19-.3,.42-.3,.71s.1,.54,.3,.73,.5,.28,.91,.28h.12v9.6h-.12c-.4,0-.7,.09-.91,.28-.2,.19-.3,.42-.3,.71s.1,.54,.3,.73,.5,.28,.91,.28h2.9c.41,0,.71-.09,.91-.28,.2-.19,.3-.43,.3-.73s-.1-.53-.3-.71c-.2-.18-.5-.27-.9-.27Z"/><path class="e" d="M13.98,11.9c-.16-.42-.29-.76-.4-1.02-.1-.25-.23-.49-.39-.71-.15-.22-.35-.4-.6-.54-.25-.14-.56-.21-.93-.21s-.67,.07-.92,.21c-.25,.14-.45,.32-.6,.55-.15,.23-.3,.51-.43,.86s-.25,.64-.34,.88l-3.36,8.53c-.14,.34-.24,.61-.3,.8-.06,.19-.09,.38-.09,.56,0,.31,.13,.59,.39,.83,.26,.24,.55,.37,.89,.37,.39,0,.68-.11,.85-.34,.17-.23,.38-.67,.63-1.33l.63-1.68h5.34l.63,1.65c.08,.2,.18,.44,.3,.7,.12,.27,.23,.46,.33,.59,.1,.13,.23,.23,.38,.3,.15,.07,.33,.11,.54,.11,.36,0,.66-.13,.92-.38s.38-.53,.38-.84-.13-.76-.4-1.41l-3.43-8.47Zm-4.27,5.74l1.94-5.42,1.98,5.42h-3.92Z"/></g><g><polygon class="c" points="8.38 3.12 3.65 6.76 5.46 12.12 11.31 12.12 13.11 6.76 8.38 3.12"/><path class="e" d="M10.39,8.2c.45,0,.45-.45,0-.45-.89,0-1.79-.89-1.79-1.79,0-.45-.45-.45-.45,0,0,.89-.89,1.79-1.79,1.79-.45,0-.45,.45,0,.45,.89,0,1.79,.89,1.79,1.79,0,.45,.45,.45,.45,0,0-.89,.89-1.79,1.79-1.79Z"/></g></g><rect class="f" y="28" width="28" height="28" rx="2" ry="2"/><polygon class="d" points="8.38 31.12 3.65 34.76 5.46 40.12 11.31 40.12 13.11 34.76 8.38 31.12"/><path class="b" d="M10.39,36.2c.45,0,.45-.45,0-.45-.89,0-1.79-.89-1.79-1.79,0-.45-.45-.45-.45,0,0,.89-.89,1.79-1.79,1.79-.45,0-.45,.45,0,.45,.89,0,1.79,.89,1.79,1.79,0,.45,.45,.45,.45,0,0-.89,.89-1.79,1.79-1.79Z"/><g><path class="b" d="M22.29,49.01h-.12v-9.6h.12c.41,0,.71-.09,.91-.28,.2-.19,.3-.43,.3-.73s-.1-.53-.3-.71c-.2-.18-.5-.27-.9-.27h-2.9c-.4,0-.7,.09-.91,.28-.2,.19-.3,.42-.3,.71s.1,.54,.3,.73,.5,.28,.91,.28h.12v9.6h-.12c-.4,0-.7,.09-.91,.28-.2,.19-.3,.42-.3,.71s.1,.54,.3,.73,.5,.28,.91,.28h2.9c.41,0,.71-.09,.91-.28,.2-.19,.3-.43,.3-.73s-.1-.53-.3-.71c-.2-.18-.5-.27-.9-.27Z"/><path class="b" d="M13.98,39.9c-.16-.42-.29-.76-.4-1.02-.1-.25-.23-.49-.39-.71-.15-.22-.35-.4-.6-.54-.25-.14-.56-.21-.93-.21s-.67,.07-.92,.21c-.25,.14-.45,.32-.6,.55-.15,.23-.3,.51-.43,.86s-.25,.64-.34,.88l-3.36,8.53c-.14,.34-.24,.61-.3,.8-.06,.19-.09,.38-.09,.56,0,.31,.13,.59,.39,.83,.26,.24,.55,.37,.89,.37,.39,0,.68-.11,.85-.34,.17-.23,.38-.67,.63-1.33l.63-1.68h5.34l.63,1.65c.08,.2,.18,.44,.3,.7,.12,.27,.23,.46,.33,.59,.1,.13,.23,.23,.38,.3,.15,.07,.33,.11,.54,.11,.36,0,.66-.13,.92-.38s.38-.53,.38-.84-.13-.76-.4-1.41l-3.43-8.47Zm-4.27,5.74l1.94-5.42,1.98,5.42h-3.92Z"/></g><rect class="f" y="56" width="28" height="28" rx="2" ry="2"/><polygon class="d" points="8.38 59.12 3.65 62.76 5.46 68.12 11.31 68.12 13.11 62.76 8.38 59.12"/><path class="b" d="M10.39,64.2c.45,0,.45-.45,0-.45-.89,0-1.79-.89-1.79-1.79,0-.45-.45-.45-.45,0,0,.89-.89,1.79-1.79,1.79-.45,0-.45,.45,0,.45,.89,0,1.79,.89,1.79,1.79,0,.45,.45,.45,.45,0,0-.89,.89-1.79,1.79-1.79Z"/><g><path class="b" d="M22.29,77.01h-.12v-9.6h.12c.41,0,.71-.09,.91-.28,.2-.19,.3-.43,.3-.73s-.1-.53-.3-.71c-.2-.18-.5-.27-.9-.27h-2.9c-.4,0-.7,.09-.91,.28-.2,.19-.3,.42-.3,.71s.1,.54,.3,.73,.5,.28,.91,.28h.12v9.6h-.12c-.4,0-.7,.09-.91,.28-.2,.19-.3,.42-.3,.71s.1,.54,.3,.73,.5,.28,.91,.28h2.9c.41,0,.71-.09,.91-.28,.2-.19,.3-.43,.3-.73s-.1-.53-.3-.71c-.2-.18-.5-.27-.9-.27Z"/><path class="b" d="M13.98,67.9c-.16-.42-.29-.76-.4-1.02-.1-.25-.23-.49-.39-.71-.15-.22-.35-.4-.6-.54-.25-.14-.56-.21-.93-.21s-.67,.07-.92,.21c-.25,.14-.45,.32-.6,.55-.15,.23-.3,.51-.43,.86s-.25,.64-.34,.88l-3.36,8.53c-.14,.34-.24,.61-.3,.8-.06,.19-.09,.38-.09,.56,0,.31,.13,.59,.39,.83,.26,.24,.55,.37,.89,.37,.39,0,.68-.11,.85-.34,.17-.23,.38-.67,.63-1.33l.63-1.68h5.34l.63,1.65c.08,.2,.18,.44,.3,.7,.12,.27,.23,.46,.33,.59,.1,.13,.23,.23,.38,.3,.15,.07,.33,.11,.54,.11,.36,0,.66-.13,.92-.38s.38-.53,.38-.84-.13-.76-.4-1.41l-3.43-8.47Zm-4.27,5.74l1.94-5.42,1.98,5.42h-3.92Z"/></g></svg>