<svg id="레이어_1" data-name="레이어 1" xmlns="http://www.w3.org/2000/svg" viewBox="0 0 28 84">
    <defs>
        <style>
            .cls-1{fill:#252727;}
            .cls-2{fill:#2bb6a8;}
            .cls-3,.cls-6{fill:none;stroke-linecap:round;stroke-linejoin:round;}
            .cls-3{stroke:#2bb6a8;}
            .cls-4{fill:none;}
            .cls-5{fill:#898989;}
            .cls-6{stroke:#898989;}
        </style>
    </defs>
    <rect class="cls-1" y="56" width="28" height="28" rx="2"/>
    <circle class="cls-2" cx="23.4" cy="79.3" r="2.4"/>
    <circle class="cls-2" cx="4.6" cy="79.3" r="2.4"/>
    <polyline class="cls-3" points="6.1 78.1 14.2 73.6 21.8 78.1"/>
    <line class="cls-3" x1="14.2" y1="73.8" x2="14.2" y2="67"/>
    <circle class="cls-2" cx="14.2" cy="63.6" r="1.3"/>
    <circle class="cls-3" cx="14.2" cy="63.6" r="3.4"/>
    <rect class="cls-4" width="28" height="28" rx="2"/>
    <circle class="cls-5" cx="23.4" cy="23.3" r="2.4"/>
    <circle class="cls-5" cx="4.6" cy="23.3" r="2.4"/>
    <polyline class="cls-6" points="6.1 22.1 14.2 17.6 21.8 22.1"/>
    <line class="cls-6" x1="14.2" y1="17.8" x2="14.2" y2="11"/>
    <circle class="cls-5" cx="14.2" cy="7.6" r="1.3"/>
    <circle class="cls-6" cx="14.2" cy="7.6" r="3.4"/>
    <rect class="cls-4" y="28" width="28" height="28" rx="2"/>
    <circle class="cls-2" cx="23.4" cy="51.3" r="2.4"/>
    <circle class="cls-2" cx="4.6" cy="51.3" r="2.4"/>
    <polyline class="cls-3" points="6.1 50.1 14.2 45.6 21.8 50.1"/>
    <line class="cls-3" x1="14.2" y1="45.8" x2="14.2" y2="39"/>
    <circle class="cls-2" cx="14.2" cy="35.6" r="1.3"/>
    <circle class="cls-3" cx="14.2" cy="35.6" r="3.4"/>
</svg>