<svg width="28" height="112" viewBox="0 0 28 112" fill="none" xmlns="http://www.w3.org/2000/svg">
<path d="M17.6303 12.5C16.3215 12.5 15.2605 11.439 15.2605 10.1302C15.2605 8.82146 16.3215 7.7605 17.6303 7.7605C18.939 7.7605 20 8.82146 20 10.1302C20 11.439 18.939 12.5 17.6303 12.5Z" fill="#888988"/>
<path d="M17.6303 20.2395C16.3215 20.2395 15.2605 19.1785 15.2605 17.8697C15.2605 16.561 16.3215 15.5 17.6303 15.5C18.939 15.5 20 16.561 20 17.8697C20 19.1785 18.939 20.2395 17.6303 20.2395Z" fill="#888988"/>
<path fill-rule="evenodd" clip-rule="evenodd" d="M23 4.5C22.7239 4.5 22.5 4.72386 22.5 5V23C22.5 23.2761 22.7239 23.5 23 23.5C23.2761 23.5 23.5 23.2761 23.5 23V5C23.5 4.72386 23.2761 4.5 23 4.5Z" fill="#888988"/>
<path fill-rule="evenodd" clip-rule="evenodd" d="M13.3536 14.3535C13.5488 14.1583 13.5488 13.8417 13.3536 13.6464L11.1716 11.4644C10.9763 11.2692 10.6597 11.2692 10.4645 11.4644C10.2692 11.6597 10.2692 11.9763 10.4645 12.1715L11.7929 13.5H5C4.72386 13.5 4.5 13.7238 4.5 14C4.5 14.2761 4.72386 14.5 5 14.5H11.7929L10.4645 15.8284C10.2692 16.0237 10.2692 16.3402 10.4645 16.5355C10.6597 16.7308 10.9763 16.7308 11.1716 16.5355L13.3536 14.3535Z" fill="#888988"/>
<path d="M17.6303 40.5C16.3215 40.5 15.2605 39.439 15.2605 38.1302C15.2605 36.8215 16.3215 35.7605 17.6303 35.7605C18.939 35.7605 20 36.8215 20 38.1302C20 39.439 18.939 40.5 17.6303 40.5Z" fill="#2BB6A8"/>
<path d="M17.6303 48.2395C16.3215 48.2395 15.2605 47.1785 15.2605 45.8697C15.2605 44.561 16.3215 43.5 17.6303 43.5C18.939 43.5 20 44.561 20 45.8697C20 47.1785 18.939 48.2395 17.6303 48.2395Z" fill="#2BB6A8"/>
<path fill-rule="evenodd" clip-rule="evenodd" d="M23 32.5C22.7239 32.5 22.5 32.7239 22.5 33V51C22.5 51.2761 22.7239 51.5 23 51.5C23.2761 51.5 23.5 51.2761 23.5 51V33C23.5 32.7239 23.2761 32.5 23 32.5Z" fill="#2BB6A8"/>
<path fill-rule="evenodd" clip-rule="evenodd" d="M13.3536 42.3535C13.5488 42.1583 13.5488 41.8417 13.3536 41.6464L11.1716 39.4644C10.9763 39.2692 10.6597 39.2692 10.4645 39.4644C10.2692 39.6597 10.2692 39.9763 10.4645 40.1715L11.7929 41.5H5C4.72386 41.5 4.5 41.7238 4.5 42C4.5 42.2761 4.72386 42.5 5 42.5H11.7929L10.4645 43.8284C10.2692 44.0237 10.2692 44.3402 10.4645 44.5355C10.6597 44.7308 10.9763 44.7308 11.1716 44.5355L13.3536 42.3535Z" fill="#2BB6A8"/>
<rect width="28" height="28" rx="2" transform="matrix(-1 0 0 1 28 56)" fill="#333536"/>
<path d="M17.6303 68.5C16.3215 68.5 15.2605 67.439 15.2605 66.1302C15.2605 64.8215 16.3215 63.7605 17.6303 63.7605C18.939 63.7605 20 64.8215 20 66.1302C20 67.439 18.939 68.5 17.6303 68.5Z" fill="#888988"/>
<path d="M17.6303 76.2395C16.3215 76.2395 15.2605 75.1785 15.2605 73.8697C15.2605 72.561 16.3215 71.5 17.6303 71.5C18.939 71.5 20 72.561 20 73.8697C20 75.1785 18.939 76.2395 17.6303 76.2395Z" fill="#888988"/>
<path fill-rule="evenodd" clip-rule="evenodd" d="M23 60.5C22.7239 60.5 22.5 60.7239 22.5 61V79C22.5 79.2761 22.7239 79.5 23 79.5C23.2761 79.5 23.5 79.2761 23.5 79V61C23.5 60.7239 23.2761 60.5 23 60.5Z" fill="#888988"/>
<path fill-rule="evenodd" clip-rule="evenodd" d="M13.3536 70.3535C13.5488 70.1583 13.5488 69.8417 13.3536 69.6464L11.1716 67.4644C10.9763 67.2692 10.6597 67.2692 10.4645 67.4644C10.2692 67.6597 10.2692 67.9763 10.4645 68.1715L11.7929 69.5H5C4.72386 69.5 4.5 69.7238 4.5 70C4.5 70.2761 4.72386 70.5 5 70.5H11.7929L10.4645 71.8284C10.2692 72.0237 10.2692 72.3402 10.4645 72.5355C10.6597 72.7308 10.9763 72.7308 11.1716 72.5355L13.3536 70.3535Z" fill="#888988"/>
<path d="M17.6303 96.5C16.3215 96.5 15.2605 95.439 15.2605 94.1302C15.2605 92.8215 16.3215 91.7605 17.6303 91.7605C18.939 91.7605 20 92.8215 20 94.1302C20 95.439 18.939 96.5 17.6303 96.5Z" fill="#D3676C"/>
<path d="M17.6303 104.239C16.3215 104.239 15.2605 103.179 15.2605 101.87C15.2605 100.561 16.3215 99.5 17.6303 99.5C18.939 99.5 20 100.561 20 101.87C20 103.179 18.939 104.239 17.6303 104.239Z" fill="#D3676C"/>
<path fill-rule="evenodd" clip-rule="evenodd" d="M23 88.5C22.7239 88.5 22.5 88.7239 22.5 89V107C22.5 107.276 22.7239 107.5 23 107.5C23.2761 107.5 23.5 107.276 23.5 107V89C23.5 88.7239 23.2761 88.5 23 88.5Z" fill="#D3676C"/>
<path fill-rule="evenodd" clip-rule="evenodd" d="M13.3536 98.3535C13.5488 98.1583 13.5488 97.8417 13.3536 97.6464L11.1716 95.4644C10.9763 95.2692 10.6597 95.2692 10.4645 95.4644C10.2692 95.6597 10.2692 95.9763 10.4645 96.1715L11.7929 97.5H5C4.72386 97.5 4.5 97.7238 4.5 98C4.5 98.2761 4.72386 98.5 5 98.5H11.7929L10.4645 99.8284C10.2692 100.024 10.2692 100.34 10.4645 100.536C10.6597 100.731 10.9763 100.731 11.1716 100.536L13.3536 98.3535Z" fill="#D3676C"/>
</svg>
