<svg width="28" height="112" viewBox="0 0 28 112" fill="none" xmlns="http://www.w3.org/2000/svg">
<path d="M12.5 10.3697C12.5 11.6785 11.439 12.7395 10.1302 12.7395C8.82146 12.7395 7.7605 11.6785 7.7605 10.3697C7.7605 9.06097 8.82146 8 10.1302 8C11.439 8 12.5 9.06097 12.5 10.3697Z" fill="#888988"/>
<path d="M20.2395 10.3697C20.2395 11.6785 19.1785 12.7395 17.8697 12.7395C16.561 12.7395 15.5 11.6785 15.5 10.3697C15.5 9.06097 16.561 8 17.8697 8C19.1785 8 20.2395 9.06097 20.2395 10.3697Z" fill="#888988"/>
<path d="M5 5L23 5" stroke="#888988" stroke-linecap="round"/>
<path fill-rule="evenodd" clip-rule="evenodd" d="M14.3535 14.6464C14.1583 14.4512 13.8417 14.4512 13.6464 14.6464L11.4644 16.8284C11.2692 17.0237 11.2692 17.3403 11.4644 17.5355C11.6597 17.7308 11.9763 17.7308 12.1715 17.5355L13.5 16.2071V23C13.5 23.2761 13.7238 23.5 14 23.5C14.2761 23.5 14.5 23.2761 14.5 23V16.2071L15.8284 17.5355C16.0237 17.7308 16.3402 17.7308 16.5355 17.5355C16.7308 17.3403 16.7308 17.0237 16.5355 16.8284L14.3535 14.6464Z" fill="#888988"/>
<path d="M12.5 38.3697C12.5 39.6785 11.439 40.7395 10.1302 40.7395C8.82146 40.7395 7.7605 39.6785 7.7605 38.3697C7.7605 37.061 8.82146 36 10.1302 36C11.439 36 12.5 37.061 12.5 38.3697Z" fill="#2BB6A8"/>
<path d="M20.2395 38.3697C20.2395 39.6785 19.1785 40.7395 17.8697 40.7395C16.561 40.7395 15.5 39.6785 15.5 38.3697C15.5 37.061 16.561 36 17.8697 36C19.1785 36 20.2395 37.061 20.2395 38.3697Z" fill="#2BB6A8"/>
<path d="M5 33H23" stroke="#2BB6A8" stroke-linecap="round"/>
<path fill-rule="evenodd" clip-rule="evenodd" d="M14.3535 42.6464C14.1583 42.4512 13.8417 42.4512 13.6464 42.6464L11.4644 44.8284C11.2692 45.0237 11.2692 45.3403 11.4644 45.5355C11.6597 45.7308 11.9763 45.7308 12.1715 45.5355L13.5 44.2071V51C13.5 51.2761 13.7238 51.5 14 51.5C14.2761 51.5 14.5 51.2761 14.5 51V44.2071L15.8284 45.5355C16.0237 45.7308 16.3402 45.7308 16.5355 45.5355C16.7308 45.3403 16.7308 45.0237 16.5355 44.8284L14.3535 42.6464Z" fill="#2BB6A8"/>
<rect width="28" height="28" rx="2" transform="matrix(0 1 1 0 0 56)" fill="#333536"/>
<path d="M12.5 66.3697C12.5 67.6785 11.439 68.7395 10.1302 68.7395C8.82146 68.7395 7.7605 67.6785 7.7605 66.3697C7.7605 65.061 8.82146 64 10.1302 64C11.439 64 12.5 65.061 12.5 66.3697Z" fill="#888988"/>
<path d="M20.2395 66.3697C20.2395 67.6785 19.1785 68.7395 17.8697 68.7395C16.561 68.7395 15.5 67.6785 15.5 66.3697C15.5 65.061 16.561 64 17.8697 64C19.1785 64 20.2395 65.061 20.2395 66.3697Z" fill="#888988"/>
<path fill-rule="evenodd" clip-rule="evenodd" d="M4.5 61C4.5 61.2761 4.72386 61.5 5 61.5H23C23.2761 61.5 23.5 61.2761 23.5 61C23.5 60.7239 23.2761 60.5 23 60.5H5C4.72386 60.5 4.5 60.7239 4.5 61Z" fill="#888988"/>
<path fill-rule="evenodd" clip-rule="evenodd" d="M14.3535 70.6464C14.1583 70.4512 13.8417 70.4512 13.6464 70.6464L11.4644 72.8284C11.2692 73.0237 11.2692 73.3403 11.4644 73.5355C11.6597 73.7308 11.9763 73.7308 12.1715 73.5355L13.5 72.2071V79C13.5 79.2761 13.7238 79.5 14 79.5C14.2761 79.5 14.5 79.2761 14.5 79V72.2071L15.8284 73.5355C16.0237 73.7308 16.3402 73.7308 16.5355 73.5355C16.7308 73.3403 16.7308 73.0237 16.5355 72.8284L14.3535 70.6464Z" fill="#888988"/>
<path d="M12.5 94.3697C12.5 95.6785 11.439 96.7395 10.1302 96.7395C8.82146 96.7395 7.7605 95.6785 7.7605 94.3697C7.7605 93.061 8.82146 92 10.1302 92C11.439 92 12.5 93.061 12.5 94.3697Z" fill="#D3676C"/>
<path d="M20.2395 94.3697C20.2395 95.6785 19.1785 96.7395 17.8697 96.7395C16.561 96.7395 15.5 95.6785 15.5 94.3697C15.5 93.061 16.561 92 17.8697 92C19.1785 92 20.2395 93.061 20.2395 94.3697Z" fill="#D3676C"/>
<path d="M5 89H23" stroke="#D3676C" stroke-linecap="round"/>
<path fill-rule="evenodd" clip-rule="evenodd" d="M14.3535 98.6464C14.1583 98.4512 13.8417 98.4512 13.6464 98.6464L11.4644 100.828C11.2692 101.024 11.2692 101.34 11.4644 101.536C11.6597 101.731 11.9763 101.731 12.1715 101.536L13.5 100.207V107C13.5 107.276 13.7238 107.5 14 107.5C14.2761 107.5 14.5 107.276 14.5 107V100.207L15.8284 101.536C16.0237 101.731 16.3402 101.731 16.5355 101.536C16.7308 101.34 16.7308 101.024 16.5355 100.828L14.3535 98.6464Z" fill="#D3676C"/>
</svg>
