<svg id="레이어_1" data-name="레이어 1" xmlns="http://www.w3.org/2000/svg" viewBox="0 0 28 84"><defs><style>.cls-1{fill:#252727;}.cls-2{fill:#2bb6a8;}.cls-3{fill:#333536;}.cls-4{fill:#898989;}</style></defs><rect class="cls-1" y="56" width="28" height="28" rx="2"/><path class="cls-2" d="M22.29,77h-.12v-9.6h.12a1.27,1.27,0,0,0,.91-.28,1,1,0,0,0,0-1.43,1.27,1.27,0,0,0-.91-.28h-2.9a1.31,1.31,0,0,0-.91.28,1,1,0,0,0,0,1.43,1.29,1.29,0,0,0,.91.28h.12V77h-.12a1.31,1.31,0,0,0-.91.28.91.91,0,0,0-.3.71.94.94,0,0,0,.3.72,1.29,1.29,0,0,0,.91.28h2.9a1.27,1.27,0,0,0,.91-.28.94.94,0,0,0,.3-.72.91.91,0,0,0-.3-.71A1.27,1.27,0,0,0,22.29,77Z"/><path class="cls-2" d="M14,67.9c-.16-.42-.29-.76-.4-1a3.52,3.52,0,0,0-.38-.72,1.94,1.94,0,0,0-.6-.54,1.88,1.88,0,0,0-.93-.21,1.87,1.87,0,0,0-.92.21,1.77,1.77,0,0,0-.6.55,4.9,4.9,0,0,0-.43.86l-.34.88L6,76.45c-.14.34-.24.6-.3.79a1.92,1.92,0,0,0-.09.56,1.11,1.11,0,0,0,.39.83A1.21,1.21,0,0,0,6.9,79a1,1,0,0,0,.86-.34,6,6,0,0,0,.62-1.33L9,75.64h5.34L15,77.29c.09.2.19.44.3.7a2.68,2.68,0,0,0,.33.59,1.15,1.15,0,0,0,.38.31,1.31,1.31,0,0,0,1.45-.27,1.13,1.13,0,0,0,.38-.84,4.16,4.16,0,0,0-.4-1.4ZM9.71,73.64l1.94-5.42,2,5.42Z"/><path class="cls-2" d="M8.86,65.42c.45,0,.45-.45,0-.45a1.92,1.92,0,0,1-1.79-1.78c0-.45-.45-.45-.45,0A1.91,1.91,0,0,1,4.84,65c-.45,0-.45.45,0,.45a1.92,1.92,0,0,1,1.78,1.79c0,.45.45.45.45,0A1.92,1.92,0,0,1,8.86,65.42Z"/><path class="cls-2" d="M8.08,62.44a1.08,1.08,0,0,1,1,1c0,.25.25.25.25,0a1.09,1.09,0,0,1,1-1c.25,0,.25-.25,0-.25a1.08,1.08,0,0,1-1-1c0-.25-.25-.25-.25,0a1.08,1.08,0,0,1-1,1C7.83,62.19,7.83,62.44,8.08,62.44Z"/><rect class="cls-3" y="28" width="28" height="28" rx="2"/><path class="cls-2" d="M22.29,49h-.12v-9.6h.12a1.27,1.27,0,0,0,.91-.28,1,1,0,0,0,0-1.43,1.27,1.27,0,0,0-.91-.28h-2.9a1.31,1.31,0,0,0-.91.28,1,1,0,0,0,0,1.43,1.29,1.29,0,0,0,.91.28h.12V49h-.12a1.31,1.31,0,0,0-.91.28.91.91,0,0,0-.3.71.94.94,0,0,0,.3.72,1.29,1.29,0,0,0,.91.28h2.9a1.27,1.27,0,0,0,.91-.28.94.94,0,0,0,.3-.72.91.91,0,0,0-.3-.71A1.27,1.27,0,0,0,22.29,49Z"/><path class="cls-2" d="M14,39.9c-.16-.42-.29-.76-.4-1a3.52,3.52,0,0,0-.38-.72,1.94,1.94,0,0,0-.6-.54,1.88,1.88,0,0,0-.93-.21,1.87,1.87,0,0,0-.92.21,1.77,1.77,0,0,0-.6.55,4.9,4.9,0,0,0-.43.86l-.34.88L6,48.45c-.14.34-.24.6-.3.79a1.92,1.92,0,0,0-.09.56,1.11,1.11,0,0,0,.39.83A1.21,1.21,0,0,0,6.9,51a1,1,0,0,0,.86-.34,6,6,0,0,0,.62-1.33L9,47.64h5.34L15,49.29l.3.7a2.68,2.68,0,0,0,.33.59,1.15,1.15,0,0,0,.38.31,1.31,1.31,0,0,0,1.45-.27,1.13,1.13,0,0,0,.38-.84,4.16,4.16,0,0,0-.4-1.4ZM9.71,45.64l1.94-5.42,2,5.42Z"/><path class="cls-2" d="M8.86,37.42c.45,0,.45-.45,0-.45a1.92,1.92,0,0,1-1.79-1.78c0-.45-.45-.45-.45,0A1.91,1.91,0,0,1,4.84,37c-.45,0-.45.45,0,.45a1.92,1.92,0,0,1,1.78,1.79c0,.45.45.45.45,0A1.92,1.92,0,0,1,8.86,37.42Z"/><path class="cls-2" d="M8.08,34.44a1.08,1.08,0,0,1,1,1c0,.25.25.25.25,0a1.09,1.09,0,0,1,1-1c.25,0,.25-.25,0-.25a1.08,1.08,0,0,1-1-1c0-.25-.25-.25-.25,0a1.08,1.08,0,0,1-1,1C7.83,34.19,7.83,34.44,8.08,34.44Z"/><rect class="cls-3" width="28" height="28" rx="2"/><path class="cls-4" d="M22.29,21h-.12v-9.6h.12a1.27,1.27,0,0,0,.91-.28,1,1,0,0,0,0-1.43,1.27,1.27,0,0,0-.91-.28h-2.9a1.31,1.31,0,0,0-.91.28,1,1,0,0,0,0,1.43,1.29,1.29,0,0,0,.91.28h.12V21h-.12a1.31,1.31,0,0,0-.91.28.91.91,0,0,0-.3.71.94.94,0,0,0,.3.72,1.29,1.29,0,0,0,.91.28h2.9a1.27,1.27,0,0,0,.91-.28.94.94,0,0,0,.3-.72.91.91,0,0,0-.3-.71A1.27,1.27,0,0,0,22.29,21Z"/><path class="cls-4" d="M14,11.9c-.16-.42-.29-.76-.4-1a3.52,3.52,0,0,0-.38-.72,1.94,1.94,0,0,0-.6-.54,1.88,1.88,0,0,0-.93-.21,1.87,1.87,0,0,0-.92.21,1.77,1.77,0,0,0-.6.55,4.9,4.9,0,0,0-.43.86l-.34.88L6,20.45c-.14.34-.24.6-.3.79a1.92,1.92,0,0,0-.09.56,1.11,1.11,0,0,0,.39.83A1.21,1.21,0,0,0,6.9,23a1,1,0,0,0,.86-.34,6,6,0,0,0,.62-1.33L9,19.64h5.34L15,21.29c.09.2.19.44.3.7a2.68,2.68,0,0,0,.33.59,1.15,1.15,0,0,0,.38.31,1.31,1.31,0,0,0,1.45-.27,1.13,1.13,0,0,0,.38-.84,4.16,4.16,0,0,0-.4-1.4ZM9.71,17.64l1.94-5.42,2,5.42Z"/><path class="cls-4" d="M8.86,9.42c.45,0,.45-.45,0-.45A1.92,1.92,0,0,1,7.07,7.19c0-.45-.45-.45-.45,0A1.91,1.91,0,0,1,4.84,9c-.45,0-.45.45,0,.45a1.92,1.92,0,0,1,1.78,1.79c0,.45.45.45.45,0A1.92,1.92,0,0,1,8.86,9.42Z"/><path class="cls-4" d="M8.08,6.44a1.08,1.08,0,0,1,1,1c0,.25.25.25.25,0a1.09,1.09,0,0,1,1-1c.25,0,.25-.25,0-.25a1.08,1.08,0,0,1-1-1c0-.25-.25-.25-.25,0a1.08,1.08,0,0,1-1,1C7.83,6.19,7.83,6.44,8.08,6.44Z"/></svg>