<svg width="28" height="112" viewBox="0 0 28 112" fill="none" xmlns="http://www.w3.org/2000/svg">
<g clip-path="url(#clip0_2429_6189)">
<path d="M10.3697 12.5C11.6785 12.5 12.7395 11.439 12.7395 10.1302C12.7395 8.82146 11.6785 7.7605 10.3697 7.7605C9.06097 7.7605 8 8.82146 8 10.1302C8 11.439 9.06097 12.5 10.3697 12.5Z" fill="#888988"/>
<path d="M10.3697 20.2395C11.6785 20.2395 12.7395 19.1785 12.7395 17.8697C12.7395 16.561 11.6785 15.5 10.3697 15.5C9.06097 15.5 8 16.561 8 17.8697C8 19.1785 9.06097 20.2395 10.3697 20.2395Z" fill="#888988"/>
<path d="M5 5V23" stroke="#888988" stroke-linecap="round"/>
<path fill-rule="evenodd" clip-rule="evenodd" d="M14.6464 14.3535C14.4512 14.1583 14.4512 13.8417 14.6464 13.6464L16.8284 11.4644C17.0237 11.2692 17.3403 11.2692 17.5355 11.4644C17.7308 11.6597 17.7308 11.9763 17.5355 12.1715L16.2071 13.5H23C23.2761 13.5 23.5 13.7238 23.5 14C23.5 14.2761 23.2761 14.5 23 14.5H16.2071L17.5355 15.8284C17.7308 16.0237 17.7308 16.3402 17.5355 16.5355C17.3403 16.7308 17.0237 16.7308 16.8284 16.5355L14.6464 14.3535Z" fill="#888988"/>
<path d="M10.3697 40.5C11.6785 40.5 12.7395 39.439 12.7395 38.1302C12.7395 36.8215 11.6785 35.7605 10.3697 35.7605C9.06097 35.7605 8 36.8215 8 38.1302C8 39.439 9.06097 40.5 10.3697 40.5Z" fill="#2BB6A8"/>
<path d="M10.3697 48.2395C11.6785 48.2395 12.7395 47.1785 12.7395 45.8697C12.7395 44.561 11.6785 43.5 10.3697 43.5C9.06097 43.5 8 44.561 8 45.8697C8 47.1785 9.06097 48.2395 10.3697 48.2395Z" fill="#2BB6A8"/>
<path d="M5 33V51" stroke="#2BB6A8" stroke-linecap="round"/>
<path fill-rule="evenodd" clip-rule="evenodd" d="M14.6464 42.3535C14.4512 42.1583 14.4512 41.8417 14.6464 41.6464L16.8284 39.4644C17.0237 39.2692 17.3403 39.2692 17.5355 39.4644C17.7308 39.6597 17.7308 39.9763 17.5355 40.1715L16.2071 41.5H23C23.2761 41.5 23.5 41.7238 23.5 42C23.5 42.2761 23.2761 42.5 23 42.5H16.2071L17.5355 43.8284C17.7308 44.0237 17.7308 44.3402 17.5355 44.5355C17.3403 44.7308 17.0237 44.7308 16.8284 44.5355L14.6464 42.3535Z" fill="#2BB6A8"/>
<rect y="56" width="28" height="28" rx="2" fill="#333536"/>
<path d="M10.3697 68.5C11.6785 68.5 12.7395 67.439 12.7395 66.1302C12.7395 64.8215 11.6785 63.7605 10.3697 63.7605C9.06097 63.7605 8 64.8215 8 66.1302C8 67.439 9.06097 68.5 10.3697 68.5Z" fill="#888988"/>
<path d="M10.3697 76.2395C11.6785 76.2395 12.7395 75.1785 12.7395 73.8697C12.7395 72.561 11.6785 71.5 10.3697 71.5C9.06097 71.5 8 72.561 8 73.8697C8 75.1785 9.06097 76.2395 10.3697 76.2395Z" fill="#888988"/>
<path d="M5 61V79" stroke="#888988" stroke-linecap="round"/>
<path fill-rule="evenodd" clip-rule="evenodd" d="M14.6464 70.3535C14.4512 70.1583 14.4512 69.8417 14.6464 69.6464L16.8284 67.4644C17.0237 67.2692 17.3403 67.2692 17.5355 67.4644C17.7308 67.6597 17.7308 67.9763 17.5355 68.1715L16.2071 69.5H23C23.2761 69.5 23.5 69.7238 23.5 70C23.5 70.2761 23.2761 70.5 23 70.5H16.2071L17.5355 71.8284C17.7308 72.0237 17.7308 72.3402 17.5355 72.5355C17.3403 72.7308 17.0237 72.7308 16.8284 72.5355L14.6464 70.3535Z" fill="#888988"/>
<path d="M10.3697 96.5C11.6785 96.5 12.7395 95.439 12.7395 94.1302C12.7395 92.8215 11.6785 91.7605 10.3697 91.7605C9.06097 91.7605 8 92.8215 8 94.1302C8 95.439 9.06097 96.5 10.3697 96.5Z" fill="#D3676C"/>
<path d="M10.3697 104.239C11.6785 104.239 12.7395 103.179 12.7395 101.87C12.7395 100.561 11.6785 99.5 10.3697 99.5C9.06097 99.5 8 100.561 8 101.87C8 103.179 9.06097 104.239 10.3697 104.239Z" fill="#D3676C"/>
<path d="M5 89V107" stroke="#D3676C" stroke-linecap="round"/>
<path fill-rule="evenodd" clip-rule="evenodd" d="M14.6464 98.3535C14.4512 98.1583 14.4512 97.8417 14.6464 97.6464L16.8284 95.4644C17.0237 95.2692 17.3403 95.2692 17.5355 95.4644C17.7308 95.6597 17.7308 95.9763 17.5355 96.1715L16.2071 97.5H23C23.2761 97.5 23.5 97.7238 23.5 98C23.5 98.2761 23.2761 98.5 23 98.5H16.2071L17.5355 99.8284C17.7308 100.024 17.7308 100.34 17.5355 100.536C17.3403 100.731 17.0237 100.731 16.8284 100.536L14.6464 98.3535Z" fill="#D3676C"/>
</g>
<defs>
<clipPath id="clip0_2429_6189">
<rect width="28" height="112" fill="white"/>
</clipPath>
</defs>
</svg>
