<svg id="레이어_1" data-name="레이어 1" xmlns="http://www.w3.org/2000/svg" viewBox="0 0 28 84"><defs><style>.cls-1{fill:#333536;}.cls-2,.cls-5{fill:none;stroke-linecap:round;stroke-linejoin:round;}.cls-2{stroke:#2bb6a8;}.cls-3{fill:#2bb6a8;}.cls-4{fill:#252727;}.cls-5{stroke:#898989;}.cls-6{fill:#898989;}</style></defs><rect class="cls-1" y="28" width="28" height="28" rx="2"/><polygon class="cls-2" points="14 32.5 4 40.2 7.8 51.5 20.2 51.5 24 40.2 14 32.5"/><path class="cls-3" d="M13.4,37.7a5,5,0,0,1-4.6,4.7c-1.2,0-1.2,1.1,0,1.1a4.9,4.9,0,0,1,4.6,4.6c0,1.2,1.2,1.2,1.2,0a4.9,4.9,0,0,1,4.6-4.6c1.2,0,1.2-1.1,0-1.1a5,5,0,0,1-4.6-4.7C14.6,36.6,13.4,36.6,13.4,37.7Z"/><circle class="cls-3" cx="4.4" cy="40.3" r="2.4"/><circle class="cls-3" cx="23.6" cy="40.3" r="2.4"/><circle class="cls-3" cx="7.9" cy="51.4" r="2.4"/><circle class="cls-3" cx="20.1" cy="51.4" r="2.4"/><circle class="cls-3" cx="14" cy="32.6" r="2.4"/><rect class="cls-4" y="56" width="28" height="28" rx="2"/><polygon class="cls-2" points="14 60.5 4 68.2 7.8 79.5 20.2 79.5 24 68.2 14 60.5"/><path class="cls-3" d="M13.4,65.7a5,5,0,0,1-4.6,4.7c-1.2,0-1.2,1.1,0,1.1a4.9,4.9,0,0,1,4.6,4.6c0,1.2,1.2,1.2,1.2,0a4.9,4.9,0,0,1,4.6-4.6c1.2,0,1.2-1.1,0-1.1a5,5,0,0,1-4.6-4.7C14.6,64.6,13.4,64.6,13.4,65.7Z"/><circle class="cls-3" cx="4.4" cy="68.3" r="2.4"/><circle class="cls-3" cx="23.6" cy="68.3" r="2.4"/><circle class="cls-3" cx="7.9" cy="79.4" r="2.4"/><circle class="cls-3" cx="20.1" cy="79.4" r="2.4"/><circle class="cls-3" cx="14" cy="60.6" r="2.4"/><rect class="cls-1" width="28" height="28" rx="2"/><polygon class="cls-5" points="14 4.5 4 12.2 7.8 23.5 20.2 23.5 24 12.2 14 4.5"/><path class="cls-6" d="M13.4,9.7a5,5,0,0,1-4.6,4.7c-1.2,0-1.2,1.1,0,1.1a4.9,4.9,0,0,1,4.6,4.6c0,1.2,1.2,1.2,1.2,0a4.9,4.9,0,0,1,4.6-4.6c1.2,0,1.2-1.1,0-1.1a5,5,0,0,1-4.6-4.7C14.6,8.6,13.4,8.6,13.4,9.7Z"/><circle class="cls-6" cx="4.4" cy="12.3" r="2.4"/><circle class="cls-6" cx="23.6" cy="12.3" r="2.4"/><circle class="cls-6" cx="7.9" cy="23.4" r="2.4"/><circle class="cls-6" cx="20.1" cy="23.4" r="2.4"/><circle class="cls-6" cx="14" cy="4.6" r="2.4"/></svg>