<svg id="레이어_1" data-name="레이어 1" xmlns="http://www.w3.org/2000/svg" viewBox="0 0 28 84"><defs><style>.cls-1{fill:#333536;}.cls-2{fill:#252727;}.cls-3,.cls-5,.cls-6,.cls-8{fill:none;stroke-linecap:round;stroke-linejoin:round;}.cls-3,.cls-5{stroke:#898a89;}.cls-3,.cls-6{stroke-width:2px;}.cls-4{fill:#898a89;}.cls-6,.cls-8{stroke:#2bb6a8;}.cls-7{fill:#2bb6a8;}</style></defs><rect class="cls-1" y="28" width="28" height="28" rx="2"/><rect class="cls-2" y="56" width="28" height="28" rx="2"/><rect class="cls-1" width="28" height="28" rx="2"/><rect class="cls-3" x="5" y="5" width="18" height="18" transform="translate(28 28) rotate(180)"/><path class="cls-4" d="M23.1,5.8H4.9V8.5H23.1Z"/><line class="cls-5" x1="19.9" y1="11.5" x2="17.9" y2="11.5"/><line class="cls-5" x1="19.9" y1="18.5" x2="17.9" y2="18.5"/><line class="cls-5" x1="19.9" y1="15" x2="17.9" y2="15"/><path class="cls-4" d="M8.9,19.4H8.6l-.2-.2a.2.2,0,0,1-.2-.2V11.3c0-.1.1-.2.1-.3l.2-.2c0-.1.1-.1.2-.2h3.9l1,.5a3.1,3.1,0,0,1,.9.7,2.2,2.2,0,0,1,.7.9,3.1,3.1,0,0,1,.5,1,4.9,4.9,0,0,1,.1,1.2,5.1,5.1,0,0,1-.3,1.7,4.5,4.5,0,0,1-1,1.4A4.2,4.2,0,0,1,13,19a4.7,4.7,0,0,1-1.7.4Zm.7-7.3v5.8h1.7a2.7,2.7,0,0,0,1.2-.3A2.8,2.8,0,0,0,14,16.1a2.3,2.3,0,0,0,.3-1.1,2,2,0,0,0-.3-1.1,1.5,1.5,0,0,0-.6-.9l-.9-.7a2.5,2.5,0,0,0-1.2-.2Z"/><rect class="cls-6" x="5" y="33" width="18" height="18" transform="translate(28 84) rotate(180)"/><path class="cls-7" d="M23.1,33.8H4.9v2.7H23.1Z"/><line class="cls-8" x1="19.9" y1="39.5" x2="17.9" y2="39.5"/><line class="cls-8" x1="19.9" y1="46.5" x2="17.9" y2="46.5"/><line class="cls-8" x1="19.9" y1="43" x2="17.9" y2="43"/><path class="cls-7" d="M8.9,47.4H8.6a.2.2,0,0,1-.2-.2.2.2,0,0,1-.2-.2c0-.1-.1-.2-.1-.3V39.3c0-.1.1-.2.1-.3a.2.2,0,0,1,.2-.2l.2-.2h3.9l1,.5a3.1,3.1,0,0,1,.9.7,2.2,2.2,0,0,1,.7.9,3.1,3.1,0,0,1,.5,1,4.9,4.9,0,0,1,.1,1.2,5.1,5.1,0,0,1-.3,1.7,4.5,4.5,0,0,1-1,1.4A4.2,4.2,0,0,1,13,47a4.7,4.7,0,0,1-1.7.4Zm.7-7.3v5.8h1.7a2.7,2.7,0,0,0,1.2-.3A2.8,2.8,0,0,0,14,44.1a2.3,2.3,0,0,0,.3-1.1,2,2,0,0,0-.3-1.1,1.5,1.5,0,0,0-.6-.9l-.9-.7a2.5,2.5,0,0,0-1.2-.2Z"/><rect class="cls-6" x="5" y="61" width="18" height="18" transform="translate(28 140) rotate(180)"/><path class="cls-7" d="M23.1,61.8H4.9v2.7H23.1Z"/><line class="cls-8" x1="19.9" y1="67.5" x2="17.9" y2="67.5"/><line class="cls-8" x1="19.9" y1="74.5" x2="17.9" y2="74.5"/><line class="cls-8" x1="19.9" y1="71" x2="17.9" y2="71"/><path class="cls-7" d="M8.9,75.4H8.6a.2.2,0,0,1-.2-.2l-.2-.2c0-.1-.1-.2-.1-.3V67l.2-.2.2-.2h3.9l1,.5a3.1,3.1,0,0,1,.9.7,2.2,2.2,0,0,1,.7.9,3.1,3.1,0,0,1,.5,1,4.9,4.9,0,0,1,.1,1.2,5.1,5.1,0,0,1-.3,1.7,4.5,4.5,0,0,1-1,1.4A4.2,4.2,0,0,1,13,75a4.7,4.7,0,0,1-1.7.4Zm.7-7.3v5.8h1.7a2.7,2.7,0,0,0,1.2-.3A2.8,2.8,0,0,0,14,72.1a2.3,2.3,0,0,0,.3-1.1,2,2,0,0,0-.3-1.1,1.5,1.5,0,0,0-.6-.9l-.9-.7a2.5,2.5,0,0,0-1.2-.2Z"/></svg>