<svg id="레이어_1" data-name="레이어 1" xmlns="http://www.w3.org/2000/svg" viewBox="0 0 28 84"><defs><style>.cls-1{fill:#333536;}.cls-2,.cls-3,.cls-4,.cls-5{fill:none;stroke-linecap:round;stroke-linejoin:round;}.cls-2,.cls-3{stroke:#898989;}.cls-2,.cls-4{stroke-width:4px;}.cls-4,.cls-5{stroke:#2bb6a8;}.cls-6{fill:#252727;}</style></defs><rect class="cls-1" width="28" height="28" rx="2"/><polyline class="cls-2" points="14 22.3 14 12.5 14 5.7"/><polyline class="cls-2" points="5.7 14 15.5 14 22.3 14"/><polyline class="cls-3" points="10.5 7 14 3.5 17.5 7"/><polyline class="cls-3" points="17.5 21 14 24.5 10.5 21"/><polyline class="cls-3" points="21 10.5 24.5 14 21 17.5"/><polyline class="cls-3" points="7 17.5 3.5 14 7 10.5"/><rect class="cls-1" y="28" width="28" height="28" rx="2"/><polyline class="cls-4" points="14 50.3 14 40.5 14 33.7"/><polyline class="cls-4" points="5.7 42 15.5 42 22.3 42"/><polyline class="cls-5" points="10.5 35 14 31.5 17.5 35"/><polyline class="cls-5" points="17.5 49 14 52.5 10.5 49"/><polyline class="cls-5" points="21 38.5 24.5 42 21 45.5"/><polyline class="cls-5" points="7 45.5 3.5 42 7 38.5"/><rect class="cls-6" y="56" width="28" height="28" rx="2"/><polyline class="cls-4" points="14 78.3 14 68.5 14 61.7"/><polyline class="cls-4" points="5.7 70 15.5 70 22.3 70"/><polyline class="cls-5" points="10.5 63 14 59.5 17.5 63"/><polyline class="cls-5" points="17.5 77 14 80.5 10.5 77"/><polyline class="cls-5" points="21 66.5 24.5 70 21 73.5"/><polyline class="cls-5" points="7 73.5 3.5 70 7 66.5"/></svg>