<svg width="28" height="112" viewBox="0 0 28 112" fill="none" xmlns="http://www.w3.org/2000/svg">
<path d="M15.5 17.6303C15.5 16.3215 16.561 15.2605 17.8698 15.2605C19.1785 15.2605 20.2395 16.3215 20.2395 17.6303C20.2395 18.939 19.1785 20 17.8698 20C16.561 20 15.5 18.939 15.5 17.6303Z" fill="#888988"/>
<path d="M7.76053 17.6303C7.76053 16.3215 8.8215 15.2605 10.1303 15.2605C11.439 15.2605 12.5 16.3215 12.5 17.6303C12.5 18.939 11.439 20 10.1303 20C8.8215 20 7.76053 18.939 7.76053 17.6303Z" fill="#888988"/>
<path d="M23 23L5 23" stroke="#888988" stroke-linecap="round"/>
<path fill-rule="evenodd" clip-rule="evenodd" d="M13.6465 13.3536C13.8417 13.5488 14.1583 13.5488 14.3536 13.3536L16.5356 11.1716C16.7308 10.9763 16.7308 10.6597 16.5356 10.4645C16.3403 10.2692 16.0237 10.2692 15.8285 10.4645L14.5 11.7929L14.5 5C14.5 4.72386 14.2762 4.5 14 4.5C13.7239 4.5 13.5 4.72386 13.5 5L13.5 11.7929L12.1716 10.4645C11.9763 10.2692 11.6598 10.2692 11.4645 10.4645C11.2692 10.6597 11.2692 10.9763 11.4645 11.1716L13.6465 13.3536Z" fill="#888988"/>
<path d="M15.5 45.6303C15.5 44.3215 16.561 43.2605 17.8698 43.2605C19.1785 43.2605 20.2395 44.3215 20.2395 45.6303C20.2395 46.939 19.1785 48 17.8698 48C16.561 48 15.5 46.939 15.5 45.6303Z" fill="#2BB6A8"/>
<path d="M7.76053 45.6303C7.76053 44.3215 8.8215 43.2605 10.1303 43.2605C11.439 43.2605 12.5 44.3215 12.5 45.6303C12.5 46.939 11.439 48 10.1303 48C8.8215 48 7.76053 46.939 7.76053 45.6303Z" fill="#2BB6A8"/>
<path d="M23 51H5" stroke="#2BB6A8" stroke-linecap="round"/>
<path fill-rule="evenodd" clip-rule="evenodd" d="M13.6465 41.3536C13.8417 41.5488 14.1583 41.5488 14.3536 41.3536L16.5356 39.1716C16.7308 38.9763 16.7308 38.6597 16.5356 38.4645C16.3403 38.2692 16.0237 38.2692 15.8285 38.4645L14.5 39.7929L14.5 33C14.5 32.7239 14.2762 32.5 14 32.5C13.7239 32.5 13.5 32.7239 13.5 33L13.5 39.7929L12.1716 38.4645C11.9763 38.2692 11.6598 38.2692 11.4645 38.4645C11.2692 38.6597 11.2692 38.9763 11.4645 39.1716L13.6465 41.3536Z" fill="#2BB6A8"/>
<rect width="28" height="28" rx="2" transform="matrix(0 -1 -1 0 28 84)" fill="#333536"/>
<path d="M15.5 73.6303C15.5 72.3215 16.561 71.2605 17.8698 71.2605C19.1785 71.2605 20.2395 72.3215 20.2395 73.6303C20.2395 74.939 19.1785 76 17.8698 76C16.561 76 15.5 74.939 15.5 73.6303Z" fill="#888988"/>
<path d="M7.76053 73.6303C7.76053 72.3215 8.8215 71.2605 10.1303 71.2605C11.439 71.2605 12.5 72.3215 12.5 73.6303C12.5 74.939 11.439 76 10.1303 76C8.8215 76 7.76053 74.939 7.76053 73.6303Z" fill="#888988"/>
<path fill-rule="evenodd" clip-rule="evenodd" d="M23.5 79C23.5 78.7239 23.2761 78.5 23 78.5H5C4.72386 78.5 4.5 78.7239 4.5 79C4.5 79.2761 4.72386 79.5 5 79.5H23C23.2761 79.5 23.5 79.2761 23.5 79Z" fill="#888988"/>
<path fill-rule="evenodd" clip-rule="evenodd" d="M13.6465 69.3536C13.8417 69.5488 14.1583 69.5488 14.3536 69.3536L16.5356 67.1716C16.7308 66.9763 16.7308 66.6597 16.5356 66.4645C16.3403 66.2692 16.0237 66.2692 15.8285 66.4645L14.5 67.7929L14.5 61C14.5 60.7239 14.2762 60.5 14 60.5C13.7239 60.5 13.5 60.7239 13.5 61L13.5 67.7929L12.1716 66.4645C11.9763 66.2692 11.6598 66.2692 11.4645 66.4645C11.2692 66.6597 11.2692 66.9763 11.4645 67.1716L13.6465 69.3536Z" fill="#888988"/>
<path d="M15.5 101.63C15.5 100.321 16.561 99.2605 17.8698 99.2605C19.1785 99.2605 20.2395 100.321 20.2395 101.63C20.2395 102.939 19.1785 104 17.8698 104C16.561 104 15.5 102.939 15.5 101.63Z" fill="#D3676C"/>
<path d="M7.76053 101.63C7.76053 100.321 8.8215 99.2605 10.1303 99.2605C11.439 99.2605 12.5 100.321 12.5 101.63C12.5 102.939 11.439 104 10.1303 104C8.8215 104 7.76053 102.939 7.76053 101.63Z" fill="#D3676C"/>
<path fill-rule="evenodd" clip-rule="evenodd" d="M23.5 107C23.5 106.724 23.2761 106.5 23 106.5H5C4.72386 106.5 4.5 106.724 4.5 107C4.5 107.276 4.72386 107.5 5 107.5H23C23.2761 107.5 23.5 107.276 23.5 107Z" fill="#D3676C"/>
<path fill-rule="evenodd" clip-rule="evenodd" d="M13.6465 97.3536C13.8417 97.5488 14.1583 97.5488 14.3536 97.3536L16.5356 95.1716C16.7308 94.9763 16.7308 94.6597 16.5356 94.4645C16.3403 94.2692 16.0237 94.2692 15.8285 94.4645L14.5 95.7929L14.5 89C14.5 88.7239 14.2762 88.5 14 88.5C13.7239 88.5 13.5 88.7239 13.5 89L13.5 95.7929L12.1716 94.4645C11.9763 94.2692 11.6598 94.2692 11.4645 94.4645C11.2692 94.6597 11.2692 94.9763 11.4645 95.1716L13.6465 97.3536Z" fill="#D3676C"/>
</svg>
