<?xml version="1.0" encoding="utf-8"?>
<!-- Generator: Adobe Illustrator 28.2.0, SVG Export Plug-In . SVG Version: 6.00 Build 0)  -->
<svg version="1.1" id="_이어_1" xmlns="http://www.w3.org/2000/svg" xmlns:xlink="http://www.w3.org/1999/xlink" x="0px" y="0px"
	 viewBox="0 0 28 112" style="enable-background:new 0 0 28 112;" xml:space="preserve">
<style type="text/css">
	.st0{fill:#888988;}
	.st1{fill:#2BB6A8;}
	.st2{fill:#252727;}
	.st3{fill:#D3676C;}
</style>
<g>
	<circle class="st0" cx="22.5" cy="5.4" r="2.7"/>
	<circle class="st0" cx="5.5" cy="22.5" r="2.7"/>
	<path class="st0" d="M10.7,18c-0.2,0-0.4-0.1-0.5-0.2c-0.3-0.3-0.3-0.8,0-1.1l6.6-6.6c0.3-0.3,0.8-0.3,1.1,0c0.3,0.3,0.3,0.8,0,1.1
		l-6.6,6.6C11.1,18,10.9,18,10.7,18z"/>
</g>
<g>
	<circle class="st1" cx="22.5" cy="33.5" r="2.7"/>
	<circle class="st1" cx="5.5" cy="50.5" r="2.7"/>
	<path class="st1" d="M10.7,46c-0.2,0-0.4-0.1-0.5-0.2c-0.3-0.3-0.3-0.8,0-1.1l6.6-6.6c0.3-0.3,0.8-0.3,1.1,0c0.3,0.3,0.3,0.8,0,1.1
		l-6.6,6.6C11.1,46,10.9,46,10.7,46z"/>
</g>
<g>
	<path class="st2" d="M2,56h24c1.1,0,2,0.9,2,2v24c0,1.1-0.9,2-2,2H2c-1.1,0-2-0.9-2-2V58C0,56.9,0.9,56,2,56z"/>
	<g>
		<circle class="st1" cx="22.5" cy="61.5" r="2.7"/>
		<circle class="st1" cx="5.5" cy="78.5" r="2.7"/>
		<path class="st1" d="M10.7,74.1c-0.2,0-0.4-0.1-0.5-0.2c-0.3-0.3-0.3-0.8,0-1.1l6.6-6.6c0.3-0.3,0.8-0.3,1.1,0
			c0.3,0.3,0.3,0.8,0,1.1l-6.6,6.6C11.1,74,10.9,74.1,10.7,74.1z"/>
	</g>
</g>
<path class="st2" d="M2,84h24c1.1,0,2,0.9,2,2v24c0,1.1-0.9,2-2,2H2c-1.1,0-2-0.9-2-2V86C0,84.9,0.9,84,2,84z"/>
<g>
	<circle class="st3" cx="22.5" cy="89.5" r="2.7"/>
	<circle class="st3" cx="5.5" cy="106.5" r="2.7"/>
	<path class="st3" d="M10.7,102.1c-0.2,0-0.4-0.1-0.5-0.2c-0.3-0.3-0.3-0.8,0-1.1l6.6-6.6c0.3-0.3,0.8-0.3,1.1,0
		c0.3,0.3,0.3,0.8,0,1.1l-6.6,6.6C11.1,102,10.9,102.1,10.7,102.1z"/>
</g>
</svg>
