<svg id="레이어_1"
     data-name="레이어 1"
     xmlns="http://www.w3.org/2000/svg" viewBox="0 0 28 84">
    <defs>
        <style>
            .cls-1{fill:#232828;}
            .cls-2{fill:#333536;}
            .cls-3{fill:#898a89;}
            .cls-4{fill:#2bb6a8;}
        </style>
    </defs>
    <rect class="cls-1" y="28" width="28" height="28" rx="2"/>
    <rect class="cls-1" y="56" width="28" height="28" rx="2"/>
    <rect class="cls-1" width="28" height="28" rx="2"/>
    <path class="cls-3" d="M16,3H12a9,9,0,0,0-9,8.9,9,9,0,0,0,9,8.9h2.6l-1,3.7c0,.2,0,.4.2.4h.5l7.3-6a9,9,0,0,0,3.4-7A9,9,0,0,0,16,3ZM14,17.6a1.2,1.2,0,0,1-1.2-1.2,1.2,1.2,0,0,1,2.4,0A1.2,1.2,0,0,1,14,17.6ZM15.2,13a1.2,1.2,0,0,1-2.4,0l-.5-5.2a1.7,1.7,0,1,1,3.4,0Z"/>
    <path class="cls-4" d="M16,31H12a8.9,8.9,0,1,0,0,17.8h2.6l-1,3.7c0,.2,0,.4.2.4h.5l7.3-6A8.9,8.9,0,0,0,16,31ZM14,45.6a1.2,1.2,0,0,1-1.2-1.2,1.2,1.2,0,0,1,2.4,0A1.2,1.2,0,0,1,14,45.6ZM15.2,41a1.2,1.2,0,0,1-2.4,0l-.5-5.2a1.7,1.7,0,0,1,3.4,0Z"/>
    <path class="cls-4" d="M16,59H12a8.9,8.9,0,1,0,0,17.8h2.6l-1,3.7c0,.2,0,.4.2.4h.5l7.3-6A8.9,8.9,0,0,0,16,59ZM14,73.6a1.2,1.2,0,0,1-1.2-1.2,1.2,1.2,0,0,1,2.4,0A1.2,1.2,0,0,1,14,73.6ZM15.2,69a1.2,1.2,0,0,1-2.4,0l-.5-5.2a1.7,1.7,0,0,1,3.4,0Z"/>
</svg>