<svg id="레이어_1" data-name="레이어 1" xmlns="http://www.w3.org/2000/svg" viewBox="0 0 28 84"><defs><style>.cls-1{fill:#252727;}.cls-2,.cls-4{fill:none;stroke-linecap:round;stroke-linejoin:round;}.cls-2{stroke:#2bb6a8;}.cls-3{fill:#333536;}.cls-4{stroke:#898989;}.cls-5{fill:#898989;}.cls-6{fill:#2bb6a8;}</style></defs><rect class="cls-1" y="56" width="28" height="28" rx="2"/><rect class="cls-2" x="4" y="60" width="20" height="20"/><rect class="cls-3" y="28" width="28" height="28" rx="2"/><rect class="cls-2" x="4" y="32" width="20" height="20"/><rect class="cls-3" width="28" height="28" rx="2"/><rect class="cls-4" x="4" y="4" width="20" height="20"/><path class="cls-5" d="M20.5,16.3,9.7,7H9.6c-.1,0-.1.1-.1.2V20.8c0,.1,0,.2.1.2h.1a.1.1,0,0,0,.1-.1l4-4.4h6.5a.1.1,0,0,0,.1-.1A.1.1,0,0,0,20.5,16.3Z"/><path class="cls-6" d="M20.5,44.3,9.7,35H9.6c-.1,0-.1.1-.1.2V48.8c0,.1,0,.2.1.2h.1a.1.1,0,0,0,.1-.1l4-4.4h6.5a.1.1,0,0,0,.1-.1A.1.1,0,0,0,20.5,44.3Z"/><path class="cls-6" d="M20.5,72.3,9.7,63H9.6c-.1,0-.1.1-.1.2V76.8c0,.1,0,.2.1.2h.2l4-4.4h6.6A.1.1,0,0,0,20.5,72.3Z"/></svg>