<svg id="레이어_1" data-name="레이어 1" xmlns="http://www.w3.org/2000/svg" viewBox="0 0 28 84"><defs><style>.cls-1{fill:#252727;}.cls-2,.cls-5{fill:none;stroke-linecap:round;stroke-linejoin:round;}.cls-2{stroke:#2bb6a8;}.cls-3{fill:#2bb6a8;}.cls-4{fill:#333536;}.cls-5{stroke:#898989;}.cls-6{fill:#898989;}</style></defs><rect class="cls-1" y="56" width="28" height="28" rx="2"/><rect class="cls-2" x="5" y="61" width="18" height="18"/><circle class="cls-3" cx="22.8" cy="78.9" r="2.4"/><circle class="cls-3" cx="5.2" cy="61.1" r="2.4"/><path class="cls-3" d="M13.4,64.8a4.9,4.9,0,0,1-4.6,4.6c-1.2,0-1.2,1.2,0,1.2a4.9,4.9,0,0,1,4.6,4.6c0,1.2,1.2,1.2,1.2,0a4.9,4.9,0,0,1,4.6-4.6c1.2,0,1.2-1.2,0-1.2a4.9,4.9,0,0,1-4.6-4.6C14.6,63.6,13.4,63.6,13.4,64.8Z"/><rect class="cls-4" y="28" width="28" height="28" rx="2"/><rect class="cls-2" x="5" y="33" width="18" height="18"/><circle class="cls-3" cx="22.8" cy="50.9" r="2.4"/><circle class="cls-3" cx="5.2" cy="33.1" r="2.4"/><path class="cls-3" d="M13.4,36.8a4.9,4.9,0,0,1-4.6,4.6c-1.2,0-1.2,1.2,0,1.2a4.9,4.9,0,0,1,4.6,4.6c0,1.2,1.2,1.2,1.2,0a4.9,4.9,0,0,1,4.6-4.6c1.2,0,1.2-1.2,0-1.2a4.9,4.9,0,0,1-4.6-4.6C14.6,35.6,13.4,35.6,13.4,36.8Z"/><rect class="cls-4" width="28" height="28" rx="2"/><rect class="cls-5" x="5" y="5" width="18" height="18"/><circle class="cls-6" cx="22.8" cy="22.9" r="2.4"/><circle class="cls-6" cx="5.2" cy="5.1" r="2.4"/><path class="cls-6" d="M13.4,8.8a4.9,4.9,0,0,1-4.6,4.6c-1.2,0-1.2,1.2,0,1.2a4.9,4.9,0,0,1,4.6,4.6c0,1.2,1.2,1.2,1.2,0a4.9,4.9,0,0,1,4.6-4.6c1.2,0,1.2-1.2,0-1.2a4.9,4.9,0,0,1-4.6-4.6C14.6,7.6,13.4,7.6,13.4,8.8Z"/></svg>