<svg id="레이어_1" data-name="레이어 1" xmlns="http://www.w3.org/2000/svg" viewBox="0 0 28 84"><defs><style>.cls-1{fill:#333536;}.cls-2{fill:#898989;}.cls-3,.cls-5{fill:none;stroke-linecap:round;stroke-linejoin:round;}.cls-3{stroke:#898989;}.cls-4{fill:#2bb6a8;}.cls-5{stroke:#2bb6a8;}.cls-6{fill:#252727;}</style></defs><rect class="cls-1" width="28" height="28" rx="2"/><path class="cls-2" d="M13.4,8.8a4.9,4.9,0,0,1-4.6,4.6c-1.2,0-1.2,1.2,0,1.2a4.9,4.9,0,0,1,4.6,4.6c0,1.2,1.2,1.2,1.2,0a4.9,4.9,0,0,1,4.6-4.6c1.2,0,1.2-1.2,0-1.2a4.9,4.9,0,0,1-4.6-4.6C14.6,7.6,13.4,7.6,13.4,8.8Z"/><polygon class="cls-3" points="5.3 9 5.3 19 14 24 22.7 19 22.7 9 14 4 5.3 9"/><circle class="cls-2" cx="5.3" cy="19" r="2.4"/><circle class="cls-2" cx="22.7" cy="19" r="2.4"/><circle class="cls-2" cx="14" cy="24" r="2.4"/><circle class="cls-2" cx="14" cy="4" r="2.4"/><circle class="cls-2" cx="5.3" cy="9" r="2.4"/><circle class="cls-2" cx="22.7" cy="9" r="2.4"/><rect class="cls-1" y="28" width="28" height="28" rx="2"/><path class="cls-4" d="M13.4,36.8a4.9,4.9,0,0,1-4.6,4.6c-1.2,0-1.2,1.2,0,1.2a4.9,4.9,0,0,1,4.6,4.6c0,1.2,1.2,1.2,1.2,0a4.9,4.9,0,0,1,4.6-4.6c1.2,0,1.2-1.2,0-1.2a4.9,4.9,0,0,1-4.6-4.6C14.6,35.6,13.4,35.6,13.4,36.8Z"/><polygon class="cls-5" points="5.3 37 5.3 47 14 52 22.7 47 22.7 37 14 32 5.3 37"/><circle class="cls-4" cx="5.3" cy="47" r="2.4"/><circle class="cls-4" cx="22.7" cy="47" r="2.4"/><circle class="cls-4" cx="14" cy="52" r="2.4"/><circle class="cls-4" cx="14" cy="32" r="2.4"/><circle class="cls-4" cx="5.3" cy="37" r="2.4"/><circle class="cls-4" cx="22.7" cy="37" r="2.4"/><rect class="cls-6" y="56" width="28" height="28" rx="2"/><path class="cls-4" d="M13.4,64.8a4.9,4.9,0,0,1-4.6,4.6c-1.2,0-1.2,1.2,0,1.2a4.9,4.9,0,0,1,4.6,4.6c0,1.2,1.2,1.2,1.2,0a4.9,4.9,0,0,1,4.6-4.6c1.2,0,1.2-1.2,0-1.2a4.9,4.9,0,0,1-4.6-4.6C14.6,63.6,13.4,63.6,13.4,64.8Z"/><polygon class="cls-5" points="5.3 65 5.3 75 14 80 22.7 75 22.7 65 14 60 5.3 65"/><circle class="cls-4" cx="5.3" cy="75" r="2.4"/><circle class="cls-4" cx="22.7" cy="75" r="2.4"/><circle class="cls-4" cx="14" cy="80" r="2.4"/><circle class="cls-4" cx="14" cy="60" r="2.4"/><circle class="cls-4" cx="5.3" cy="65" r="2.4"/><circle class="cls-4" cx="22.7" cy="65" r="2.4"/></svg>