<svg id="레이어_1" data-name="레이어 1" xmlns="http://www.w3.org/2000/svg" viewBox="0 0 28 84"><defs><style>.cls-1{fill:#333536;}.cls-2{fill:#252727;}.cls-3,.cls-4,.cls-5,.cls-6{fill:none;stroke-linecap:round;stroke-linejoin:round;}.cls-3,.cls-4{stroke:#898a89;}.cls-4,.cls-6{stroke-width:2px;}.cls-5,.cls-6{stroke:#2bb6a8;}</style></defs><rect class="cls-1" y="28" width="28" height="28" rx="2"/><rect class="cls-2" y="56" width="28" height="28" rx="2"/><rect class="cls-1" width="28" height="28" rx="2"/><line class="cls-3" x1="11.2" y1="5" x2="11.2" y2="23"/><line class="cls-3" x1="16.9" y1="5" x2="16.9" y2="23"/><line class="cls-3" x1="23" y1="11.2" x2="5" y2="11.2"/><line class="cls-3" x1="23" y1="16.8" x2="5" y2="16.8"/><rect class="cls-4" x="5" y="5" width="18" height="18"/><line class="cls-5" x1="11.2" y1="33" x2="11.2" y2="51"/><line class="cls-5" x1="16.9" y1="33" x2="16.9" y2="51"/><line class="cls-5" x1="23" y1="39.2" x2="5" y2="39.2"/><line class="cls-5" x1="23" y1="44.8" x2="5" y2="44.8"/><rect class="cls-6" x="5" y="33" width="18" height="18"/><line class="cls-5" x1="11.2" y1="61" x2="11.2" y2="79"/><line class="cls-5" x1="16.9" y1="61" x2="16.9" y2="79"/><line class="cls-5" x1="23" y1="67.1" x2="5" y2="67.1"/><line class="cls-5" x1="23" y1="72.8" x2="5" y2="72.8"/><rect class="cls-6" x="5" y="61" width="18" height="18"/></svg>