<svg id="레이어_1" data-name="레이어 1" xmlns="http://www.w3.org/2000/svg" viewBox="0 0 28 84">
    <defs>
        <style>
            .cls-1{fill:#252727;}
            .cls-2{fill:#2bb6a8;}
            .cls-3,.cls-6{fill:none;stroke-linecap:round;stroke-linejoin:round;}
            .cls-3{stroke:#2bb6a8;}
            .cls-4{fill:none;}
            .cls-5{fill:#898989;}
            .cls-6{stroke:#898989;}
        </style>
    </defs>
    <rect class="cls-1" y="56" width="28" height="28" rx="2"/>
    <circle class="cls-2" cx="10.7" cy="67.3" r="2.4"/>
    <circle class="cls-2" cx="4.2" cy="79.3" r="2.4"/>
    <polyline class="cls-3" points="4.4 79 10.7 67.2 17 72.6 23.3 60.8"/>
    <circle class="cls-2" cx="23.5" cy="60.7" r="2.4"/>
    <circle class="cls-2" cx="17" cy="72.6" r="2.4"/>
    <rect class="cls-4" width="28" height="28" rx="2"/>
    <circle class="cls-5" cx="10.7" cy="11.3" r="2.4"/>
    <circle class="cls-5" cx="4.2" cy="23.3" r="2.4"/>
    <polyline class="cls-6" points="4.4 23 10.7 11.2 17 16.6 23.3 4.8"/>
    <circle class="cls-5" cx="23.5" cy="4.7" r="2.4"/>
    <circle class="cls-5" cx="17" cy="16.6" r="2.4"/>
    <rect class="cls-4" y="28" width="28" height="28" rx="2"/>
    <circle class="cls-2" cx="10.7" cy="39.3" r="2.4"/>
    <circle class="cls-2" cx="4.2" cy="51.3" r="2.4"/>
    <polyline class="cls-3" points="4.4 51 10.7 39.2 17 44.6 23.3 32.8"/>
    <circle class="cls-2" cx="23.5" cy="32.7" r="2.4"/>
    <circle class="cls-2" cx="17" cy="44.6" r="2.4"/>
</svg>