<svg xmlns="http://www.w3.org/2000/svg" id="레이어_1" data-name="레이어 1" viewBox="0 0 115.7 106.2"><defs><style>.cls-1{fill:#9d9d9e;}.cls-2{fill:#2bb6a8;}.cls-3{fill:none;}.cls-4{fill:#e4e043;}.cls-5{fill:#dd6a6f;}</style></defs><path class="cls-1" d="M61.7,46.3V71.8a5,5,0,0,0-2.9,4.5,4.9,4.9,0,0,0,9.8,0,5,5,0,0,0-2.9-4.5V46.3a4.2,4.2,0,0,1-4,0Z" transform="translate(-5.9 -2.5)"/><path class="cls-1" d="M63.7,12.4a5,5,0,1,1,4.9-4.9A4.9,4.9,0,0,1,63.7,12.4Zm0-7.9a3,3,0,0,0-3,3,3,3,0,0,0,3,2.9,3,3,0,0,0,0-5.9Z" transform="translate(-5.9 -2.5)"/><ellipse class="cls-1" cx="40.2" cy="18" rx="2" ry="2" transform="translate(13.1 54) rotate(-85.2)"/><ellipse class="cls-1" cx="47.3" cy="14.7" rx="2" ry="2" transform="translate(22.9 58) rotate(-85.2)"/><ellipse class="cls-1" cx="54.4" cy="11.3" rx="2" ry="2" transform="translate(32.7 62) rotate(-85.2)"/><ellipse class="cls-1" cx="87.2" cy="18" rx="2" ry="2" transform="translate(-7.1 4.9) rotate(-4.8)"/><ellipse class="cls-1" cx="80.1" cy="14.7" rx="2" ry="2" transform="translate(-6.8 4.3) rotate(-4.8)"/><ellipse class="cls-1" cx="73" cy="11.3" rx="2" ry="2" transform="translate(-6.5 3.7) rotate(-4.8)"/><polygon class="cls-3" points="25.1 55.1 25.1 55.1 25.1 55.1 25.1 55.1"/><path class="cls-2" d="M96.4,55.3V28.4a4.9,4.9,0,0,0,3.1-4.5,5,5,0,0,0-5-4.9,4.9,4.9,0,0,0-4.9,4.9h0L66.5,37.8a5.5,5.5,0,0,0-2.8-.9,5.1,5.1,0,0,0-2.9,1L37.7,24.4a4.6,4.6,0,0,0-.8-3.4,5.7,5.7,0,0,0-3.2-2,4.9,4.9,0,0,0-3.7.9A4.7,4.7,0,0,0,28,23a5.4,5.4,0,0,0,.8,3.7,5.6,5.6,0,0,0,2.1,1.7V55.3a5.1,5.1,0,0,0-3,4.5,5,5,0,1,0,7-4.4V28.3l.8-.4h0L58.8,41.3v.6a4.7,4.7,0,0,0,2.9,4.4,4.2,4.2,0,0,0,4,0,4.7,4.7,0,0,0,2.9-4.4v-.6L91.4,27.6l1,.7V55.4a5.2,5.2,0,0,0-2.8,4.4,4.9,4.9,0,0,0,4.9,5,5,5,0,0,0,5-5A4.9,4.9,0,0,0,96.4,55.3ZM35.3,58.2h0a.8.8,0,0,1,.2.4h.1c0,.1.1.3.1.4v.2a.7.7,0,0,1,.1.5,3,3,0,1,1-5.9,0,1.3,1.3,0,0,1,.1-.6h0l.2-.5h0l.3-.5h0l.4-.5h0a3.2,3.2,0,0,1,2-.7,2.5,2.5,0,0,1,2,.9h0A.8.8,0,0,1,35.3,58.2Zm59.2,4.6a2.9,2.9,0,0,1-2.9-3v-.5l.2-.4v-.2a2.4,2.4,0,0,1,.6-.9h0a3.1,3.1,0,0,1,2.1-.9A2.7,2.7,0,0,1,96.8,58h.1l.3.5h0l.2.5h0a1.3,1.3,0,0,1,.1.6A2.9,2.9,0,0,1,94.5,62.8Z" transform="translate(-5.9 -2.5)"/><path class="cls-4" d="M35.7,59.3v-.2c0-.1-.1-.3-.1-.4h-.1a.8.8,0,0,0-.2-.4h0a.8.8,0,0,0-.4-.4,2.5,2.5,0,0,0-2-.9,3.2,3.2,0,0,0-2,.7l-.4.5h0l-.3.5h0l-.2.5h0a1.3,1.3,0,0,0-.1.6,3,3,0,1,0,5.9,0A.7.7,0,0,0,35.7,59.3Z" transform="translate(-5.9 -2.5)"/><path class="cls-5" d="M97.4,59.2h0l-.2-.5h0l-.3-.5h-.1l-.4-.4h0a3.2,3.2,0,0,0-1.9-.7,3.1,3.1,0,0,0-2.1.9h0a2.4,2.4,0,0,0-.6.9v.2l-.2.4v.5a3,3,0,1,0,5.9,0A1.3,1.3,0,0,0,97.4,59.2Z" transform="translate(-5.9 -2.5)"/></svg>