<svg id="레이어_1" data-name="레이어 1" xmlns="http://www.w3.org/2000/svg" viewBox="0 0 28 84"><defs><style>.cls-1{fill:#333536;}.cls-2{fill:#898a89;}.cls-3{fill:#2bb6a8;}.cls-4{fill:#252727;}</style></defs><rect class="cls-1" width="28" height="28" rx="2"/><path class="cls-2" d="M21.2,10,14.7,4.3a1,1,0,0,0-1.4,0L6.8,10a1.1,1.1,0,0,0-.3.8V23a.9.9,0,0,0,1,1h13a.9.9,0,0,0,1-1V10.8A1.1,1.1,0,0,0,21.2,10Z"/><rect class="cls-1" y="28" width="28" height="28" rx="2"/><path class="cls-3" d="M21.2,38l-6.5-5.7a1,1,0,0,0-1.4,0L6.8,38a1.1,1.1,0,0,0-.3.8V51a.9.9,0,0,0,1,1h13a.9.9,0,0,0,1-1V38.8A1.1,1.1,0,0,0,21.2,38Z"/><rect class="cls-4" y="56" width="28" height="28" rx="2"/><path class="cls-3" d="M21.2,66l-6.5-5.7a1,1,0,0,0-1.4,0L6.8,66a1.1,1.1,0,0,0-.3.8V79a.9.9,0,0,0,1,1h13a.9.9,0,0,0,1-1V66.8A1.1,1.1,0,0,0,21.2,66Z"/></svg>