<svg id="레이어_1" data-name="레이어 1" xmlns="http://www.w3.org/2000/svg" viewBox="0 0 28 84"><defs><style>.cls-1{fill:#333536;}.cls-2{fill:#898a89;}.cls-3{fill:#2bb6a8;}.cls-4{fill:#252727;}</style></defs><rect class="cls-1" width="28" height="28" rx="2"/><path class="cls-2" d="M23.9,11.5l-.3-.2-2.1-.4-.4-.9,1.3-1.7c0-.1.1-.3,0-.4a12.4,12.4,0,0,0-2.8-2.8h-.4L17.5,6.4,16.6,6l-.4-2.1c0-.2-.1-.3-.2-.3a9,9,0,0,0-4,0c-.1,0-.2.1-.2.3L11.4,6l-.9.4L8.8,5.1H8.4A10.7,10.7,0,0,0,5.6,7.9v.4L6.9,10l-.4.9-2.1.4-.3.2a13.6,13.6,0,0,0-.2,2c0,.2.2.3.4.3H8.7c.2,0,.4-.1.4-.3a4.9,4.9,0,1,1,9.8,0c0,.2.2.3.4.3h4.4c.2,0,.4-.1.4-.3A13.6,13.6,0,0,0,23.9,11.5Z"/><path class="cls-2" d="M25,16.4H16.8a.5.5,0,0,1,0-1H25a.5.5,0,0,1,0,1Z"/><circle class="cls-2" cx="14" cy="15.9" r="1.4"/><path class="cls-2" d="M11.2,16.4H3a.5.5,0,1,1,0-1h8.2a.5.5,0,1,1,0,1Z"/><path class="cls-2" d="M25,20.1H10.9a.5.5,0,0,1-.5-.5.5.5,0,0,1,.5-.5H25a.5.5,0,0,1,.5.5A.5.5,0,0,1,25,20.1Z"/><circle class="cls-2" cx="8.1" cy="19.6" r="1.4"/><path class="cls-2" d="M5.3,20.1H3a.5.5,0,0,1-.5-.5.5.5,0,0,1,.5-.5H5.3a.5.5,0,0,1,.5.5A.5.5,0,0,1,5.3,20.1Z"/><path class="cls-2" d="M25,23.7H22.7a.5.5,0,0,1,0-1H25a.5.5,0,0,1,0,1Z"/><circle class="cls-2" cx="19.9" cy="23.2" r="1.4"/><path class="cls-2" d="M17.1,23.7H3a.5.5,0,0,1,0-1H17.1a.5.5,0,0,1,0,1Z"/><rect class="cls-1" y="28" width="28" height="28" rx="2"/><path class="cls-3" d="M23.9,39.5c0-.1-.2-.2-.3-.2l-2.1-.4-.4-.9,1.3-1.7c0-.1.1-.3,0-.4a12.4,12.4,0,0,0-2.8-2.8.3.3,0,0,0-.4,0l-1.7,1.3-.9-.4-.4-2.1c0-.2-.1-.3-.2-.3a9,9,0,0,0-4,0c-.1,0-.2.1-.2.3L11.4,34l-.9.4L8.8,33.1a.3.3,0,0,0-.4,0,10.7,10.7,0,0,0-2.8,2.8v.4L6.9,38l-.4.9-2.1.4c-.1,0-.3.1-.3.2a13.6,13.6,0,0,0-.2,2c0,.2.2.3.4.3H8.7c.2,0,.4-.1.4-.3a4.9,4.9,0,0,1,9.8,0c0,.2.2.3.4.3h4.4c.2,0,.4-.1.4-.3A13.6,13.6,0,0,0,23.9,39.5Z"/><path class="cls-3" d="M25,44.4H16.8a.5.5,0,0,1,0-1H25a.5.5,0,1,1,0,1Z"/><circle class="cls-3" cx="14" cy="43.9" r="1.4"/><path class="cls-3" d="M11.2,44.4H3a.5.5,0,0,1,0-1h8.2a.5.5,0,0,1,0,1Z"/><path class="cls-3" d="M25,48.1H10.9a.5.5,0,0,1-.5-.5.5.5,0,0,1,.5-.5H25a.5.5,0,0,1,.5.5A.5.5,0,0,1,25,48.1Z"/><circle class="cls-3" cx="8.1" cy="47.6" r="1.4"/><path class="cls-3" d="M5.3,48.1H3a.5.5,0,0,1-.5-.5.5.5,0,0,1,.5-.5H5.3a.5.5,0,0,1,.5.5A.5.5,0,0,1,5.3,48.1Z"/><path class="cls-3" d="M25,51.7H22.7a.5.5,0,0,1,0-1H25a.5.5,0,0,1,0,1Z"/><circle class="cls-3" cx="19.9" cy="51.2" r="1.4"/><path class="cls-3" d="M17.1,51.7H3a.5.5,0,0,1,0-1H17.1a.5.5,0,1,1,0,1Z"/><rect class="cls-4" y="56" width="28" height="28" rx="2"/><path class="cls-3" d="M23.9,67.5l-.3-.2-2.1-.4-.4-.9,1.3-1.7c0-.1.1-.3,0-.4a12.4,12.4,0,0,0-2.8-2.8.3.3,0,0,0-.4,0l-1.7,1.3-.9-.4-.4-2.1c0-.2-.1-.3-.2-.3a9,9,0,0,0-4,0c-.1,0-.2.1-.2.3L11.4,62l-.9.4L8.8,61.1a.3.3,0,0,0-.4,0,10.7,10.7,0,0,0-2.8,2.8v.4L6.9,66l-.4.9-2.1.4-.3.2a13.6,13.6,0,0,0-.2,2c0,.2.2.3.4.3H8.7c.2,0,.4-.1.4-.3a4.9,4.9,0,1,1,9.8,0c0,.2.2.3.4.3h4.4c.2,0,.4-.1.4-.3A13.6,13.6,0,0,0,23.9,67.5Z"/><path class="cls-3" d="M25,72.4H16.8a.5.5,0,1,1,0-1H25a.5.5,0,0,1,0,1Z"/><circle class="cls-3" cx="14" cy="71.9" r="1.4"/><path class="cls-3" d="M11.2,72.4H3a.5.5,0,0,1,0-1h8.2a.5.5,0,1,1,0,1Z"/><path class="cls-3" d="M25,76.1H10.9a.5.5,0,0,1-.5-.5.5.5,0,0,1,.5-.5H25a.5.5,0,0,1,.5.5A.5.5,0,0,1,25,76.1Z"/><circle class="cls-3" cx="8.1" cy="75.6" r="1.4"/><path class="cls-3" d="M5.3,76.1H3a.5.5,0,0,1-.5-.5.5.5,0,0,1,.5-.5H5.3a.5.5,0,0,1,.5.5A.5.5,0,0,1,5.3,76.1Z"/><path class="cls-3" d="M25,79.7H22.7a.5.5,0,0,1,0-1H25a.5.5,0,0,1,0,1Z"/><circle class="cls-3" cx="19.9" cy="79.2" r="1.4"/><path class="cls-3" d="M17.1,79.7H3a.5.5,0,0,1,0-1H17.1a.5.5,0,1,1,0,1Z"/></svg>