<svg id="레이어_1" data-name="레이어 1" xmlns="http://www.w3.org/2000/svg" viewBox="0 0 28 84"><defs><style>.cls-1{fill:#333536;}.cls-2{fill:#252727;}.cls-10,.cls-3,.cls-6,.cls-7{fill:none;}.cls-3,.cls-5,.cls-6{stroke:#898a89;}.cls-10,.cls-3,.cls-5,.cls-6,.cls-7,.cls-9{stroke-linecap:round;stroke-linejoin:round;}.cls-4,.cls-5{fill:#898a89;}.cls-5,.cls-9{stroke-width:0.75px;}.cls-10,.cls-6{stroke-width:2px;}.cls-10,.cls-7,.cls-9{stroke:#2bb6a8;}.cls-8,.cls-9{fill:#2bb6a8;}</style></defs><rect class="cls-1" y="28" width="28" height="28" rx="2"/><rect class="cls-2" y="56" width="28" height="28" rx="2"/><rect class="cls-1" width="28" height="28" rx="2"/><rect class="cls-3" x="10" y="10" width="8" height="8"/><circle class="cls-4" cx="12.4" cy="12.3" r="0.8"/><polygon class="cls-5" points="14.3 17.3 12.4 14.9 10.2 17.3 10.2 18 17.9 18 17.9 16.9 15.5 13.8 13.7 15.7 13.4 16.1 14.3 17.3"/><rect class="cls-6" x="5" y="5" width="18" height="18"/><rect class="cls-7" x="10" y="38" width="8" height="8"/><circle class="cls-8" cx="12.4" cy="40.3" r="0.8"/><polygon class="cls-9" points="14.3 45.3 12.4 42.9 10.2 45.3 10.2 46 17.9 46 17.9 44.9 15.5 41.8 13.7 43.7 13.4 44.1 14.3 45.3"/><rect class="cls-10" x="5" y="33" width="18" height="18"/><rect class="cls-7" x="10" y="66" width="8" height="8"/><circle class="cls-8" cx="12.4" cy="68.3" r="0.8"/><polygon class="cls-9" points="14.3 73.3 12.4 70.9 10.2 73.3 10.2 74 17.9 74 17.9 72.9 15.5 69.8 13.7 71.7 13.4 72.1 14.3 73.3"/><rect class="cls-10" x="5" y="61" width="18" height="18"/></svg>