<svg id="레이어_1" data-name="레이어 1" xmlns="http://www.w3.org/2000/svg" viewBox="0 0 28 84"><defs><style>.cls-1{fill:#252727;}.cls-2,.cls-4{fill:none;stroke-linecap:round;stroke-linejoin:round;}.cls-2{stroke:#2bb6a8;}.cls-3{fill:#333536;}.cls-4{stroke:#898989;}.cls-5{fill:#898989;}.cls-6{fill:#2bb6a8;}</style></defs><rect class="cls-1" y="56" width="28" height="28" rx="2"/><rect class="cls-2" x="4" y="60" width="20" height="20"/><rect class="cls-3" y="28" width="28" height="28" rx="2"/><rect class="cls-2" x="4" y="32" width="20" height="20"/><rect class="cls-3" width="28" height="28" rx="2"/><rect class="cls-4" x="4" y="4" width="20" height="20"/><path class="cls-5" d="M14,21.4a1.3,1.3,0,0,1-1.4-1.3V7.9a1.4,1.4,0,0,1,2.8,0V20.1A1.3,1.3,0,0,1,14,21.4Z"/><path class="cls-5" d="M20.1,15.4H7.9a1.4,1.4,0,0,1,0-2.8H20.1a1.4,1.4,0,0,1,0,2.8Z"/><path class="cls-5" d="M16.6,9.2h-.3L14,6.8,11.7,9.1a.3.3,0,0,1-.5,0,.3.3,0,0,1,0-.4l2.6-2.6h.4l2.6,2.6a.3.3,0,0,1,0,.4Z"/><path class="cls-5" d="M14,22c-.1,0-.2,0-.2-.1l-2.6-2.6a.3.3,0,0,1,0-.4.3.3,0,0,1,.5,0L14,21.2l2.3-2.3a.3.3,0,0,1,.5,0,.3.3,0,0,1,0,.4l-2.6,2.6C14.2,22,14.1,22,14,22Z"/><path class="cls-5" d="M19.1,16.9h-.2a.3.3,0,0,1,0-.5L21.2,14l-2.3-2.3a.3.3,0,0,1,0-.5h.4l2.6,2.6c.1,0,.1.1.1.2s0,.2-.1.2l-2.6,2.6Z"/><path class="cls-5" d="M8.9,16.9H8.7L6.1,14.2c-.1,0-.1-.1-.1-.2s0-.2.1-.2l2.6-2.6h.4a.3.3,0,0,1,0,.5L6.8,14l2.3,2.3a.3.3,0,0,1,0,.5Z"/><path class="cls-6" d="M14,49.4a1.3,1.3,0,0,1-1.4-1.3V35.9a1.4,1.4,0,0,1,2.8,0V48.1A1.3,1.3,0,0,1,14,49.4Z"/><path class="cls-6" d="M20.1,43.4H7.9a1.4,1.4,0,0,1,0-2.8H20.1a1.4,1.4,0,0,1,0,2.8Z"/><path class="cls-6" d="M16.6,37.2h-.3L14,34.8l-2.3,2.3a.3.3,0,0,1-.5,0,.3.3,0,0,1,0-.4l2.6-2.6a.3.3,0,0,1,.4,0l2.6,2.6a.3.3,0,0,1,0,.4Z"/><path class="cls-6" d="M14,50c-.1,0-.2,0-.2-.1l-2.6-2.6a.3.3,0,0,1,0-.4.3.3,0,0,1,.5,0L14,49.2l2.3-2.3a.3.3,0,0,1,.5,0,.3.3,0,0,1,0,.4l-2.6,2.6C14.2,50,14.1,50,14,50Z"/><path class="cls-6" d="M19.1,44.9c-.1,0-.2,0-.2-.1a.3.3,0,0,1,0-.5L21.2,42l-2.3-2.3a.3.3,0,0,1,0-.5.3.3,0,0,1,.4,0l2.6,2.6a.3.3,0,0,1,0,.4l-2.6,2.6C19.3,44.9,19.2,44.9,19.1,44.9Z"/><path class="cls-6" d="M8.9,44.9c-.1,0-.2,0-.2-.1L6.1,42.2a.3.3,0,0,1,0-.4l2.6-2.6a.3.3,0,0,1,.4,0,.3.3,0,0,1,0,.5L6.8,42l2.3,2.3a.3.3,0,0,1,0,.5C9.1,44.9,9,44.9,8.9,44.9Z"/><path class="cls-6" d="M14,77.4a1.3,1.3,0,0,1-1.4-1.3V63.9a1.4,1.4,0,0,1,2.8,0V76.1A1.3,1.3,0,0,1,14,77.4Z"/><path class="cls-6" d="M20.1,71.4H7.9a1.4,1.4,0,0,1,0-2.8H20.1a1.4,1.4,0,0,1,0,2.8Z"/><path class="cls-6" d="M16.6,65.2h-.3L14,62.8l-2.3,2.3a.3.3,0,0,1-.5,0,.3.3,0,0,1,0-.4l2.6-2.6a.3.3,0,0,1,.4,0l2.6,2.6a.3.3,0,0,1,0,.4Z"/><path class="cls-6" d="M14,78h-.2l-2.6-2.6a.3.3,0,0,1,0-.4.3.3,0,0,1,.5,0L14,77.2l2.3-2.3a.3.3,0,0,1,.5,0,.3.3,0,0,1,0,.4l-2.6,2.6Z"/><path class="cls-6" d="M19.1,72.9c-.1,0-.2,0-.2-.1a.3.3,0,0,1,0-.5L21.2,70l-2.3-2.3a.3.3,0,0,1,0-.5.3.3,0,0,1,.4,0l2.6,2.6a.3.3,0,0,1,0,.4l-2.6,2.6C19.3,72.9,19.2,72.9,19.1,72.9Z"/><path class="cls-6" d="M8.9,72.9c-.1,0-.2,0-.2-.1L6.1,70.2a.3.3,0,0,1,0-.4l2.6-2.6a.3.3,0,0,1,.4,0,.3.3,0,0,1,0,.5L6.8,70l2.3,2.3a.3.3,0,0,1,0,.5C9.1,72.9,9,72.9,8.9,72.9Z"/></svg>