<svg id="레이어_1" data-name="레이어 1" xmlns="http://www.w3.org/2000/svg" viewBox="0 0 24 72"><defs><style>.cls-1{fill:#c9caca;}.cls-2,.cls-4,.cls-6{fill:none;stroke-linecap:round;stroke-linejoin:round;}.cls-2{stroke:#c9caca;}.cls-3{fill:#e2eec5;}.cls-4{stroke:#e2eec5;}.cls-5{fill:#2bb6a8;}.cls-6{stroke:#2bb6a8;}</style></defs><path class="cls-1" d="M21.9,9.5l-.3-.2-2.1-.4L19.1,8l1.3-1.7c0-.1.1-.3,0-.4a12.4,12.4,0,0,0-2.8-2.8.3.3,0,0,0-.4,0L15.5,4.4,14.6,4l-.4-2.1c0-.2-.1-.3-.2-.3a9,9,0,0,0-4,0c-.1,0-.2.1-.2.3L9.4,4l-.9.4L6.8,3.1a.3.3,0,0,0-.4,0A10.7,10.7,0,0,0,3.6,5.9c-.1.1,0,.3,0,.4L4.9,8l-.4.9-2.1.4-.3.2a13.6,13.6,0,0,0-.2,2c0,.2.2.3.4.3H6.7c.2,0,.4-.1.4-.3a4.9,4.9,0,1,1,9.8,0c0,.2.2.3.4.3h4.4c.2,0,.4-.1.4-.3A13.6,13.6,0,0,0,21.9,9.5Z"/><line class="cls-2" x1="14.8" y1="13.9" x2="23" y2="13.9"/><circle class="cls-1" cx="12" cy="13.9" r="1.4"/><line class="cls-2" x1="1" y1="13.9" x2="9.2" y2="13.9"/><line class="cls-2" x1="8.9" y1="17.6" x2="23" y2="17.6"/><circle class="cls-1" cx="6.1" cy="17.6" r="1.4"/><line class="cls-2" x1="1" y1="17.6" x2="3.3" y2="17.6"/><line class="cls-2" x1="20.7" y1="21.2" x2="23" y2="21.2"/><circle class="cls-1" cx="17.9" cy="21.2" r="1.4"/><line class="cls-2" x1="1" y1="21.2" x2="15.1" y2="21.2"/><path class="cls-3" d="M21.9,33.5c0-.1-.2-.2-.3-.2l-2.1-.4-.4-.9,1.3-1.7c0-.1.1-.3,0-.4a12.4,12.4,0,0,0-2.8-2.8.3.3,0,0,0-.4,0l-1.7,1.3-.9-.4-.4-2.1c0-.2-.1-.3-.2-.3a9,9,0,0,0-4,0c-.1,0-.2.1-.2.3L9.4,28l-.9.4L6.8,27.1a.3.3,0,0,0-.4,0,10.7,10.7,0,0,0-2.8,2.8c-.1.1,0,.3,0,.4L4.9,32l-.4.9-2.1.4c-.1,0-.3.1-.3.2a13.6,13.6,0,0,0-.2,2c0,.2.2.3.4.3H6.7c.2,0,.4-.1.4-.3a4.9,4.9,0,0,1,9.8,0c0,.2.2.3.4.3h4.4c.2,0,.4-.1.4-.3A13.6,13.6,0,0,0,21.9,33.5Z"/><line class="cls-4" x1="14.8" y1="37.9" x2="23" y2="37.9"/><circle class="cls-3" cx="12" cy="37.9" r="1.4"/><line class="cls-4" x1="1" y1="37.9" x2="9.2" y2="37.9"/><line class="cls-4" x1="8.9" y1="41.6" x2="23" y2="41.6"/><circle class="cls-3" cx="6.1" cy="41.6" r="1.4"/><line class="cls-4" x1="1" y1="41.6" x2="3.3" y2="41.6"/><line class="cls-4" x1="20.7" y1="45.2" x2="23" y2="45.2"/><circle class="cls-3" cx="17.9" cy="45.2" r="1.4"/><line class="cls-4" x1="1" y1="45.2" x2="15.1" y2="45.2"/><path class="cls-5" d="M21.9,57.5c0-.1-.2-.2-.3-.2l-2.1-.4-.4-.9,1.3-1.7c0-.1.1-.3,0-.4a12.4,12.4,0,0,0-2.8-2.8.3.3,0,0,0-.4,0l-1.7,1.3-.9-.4-.4-2.1c0-.2-.1-.3-.2-.3a9,9,0,0,0-4,0c-.1,0-.2.1-.2.3L9.4,52l-.9.4L6.8,51.1a.3.3,0,0,0-.4,0,10.7,10.7,0,0,0-2.8,2.8c-.1.1,0,.3,0,.4L4.9,56l-.4.9-2.1.4c-.1,0-.3.1-.3.2a13.6,13.6,0,0,0-.2,2c0,.2.2.3.4.3H6.7c.2,0,.4-.1.4-.3a4.9,4.9,0,0,1,9.8,0c0,.2.2.3.4.3h4.4c.2,0,.4-.1.4-.3A13.6,13.6,0,0,0,21.9,57.5Z"/><line class="cls-6" x1="14.8" y1="61.9" x2="23" y2="61.9"/><circle class="cls-5" cx="12" cy="61.9" r="1.4"/><line class="cls-6" x1="1" y1="61.9" x2="9.2" y2="61.9"/><line class="cls-6" x1="8.9" y1="65.6" x2="23" y2="65.6"/><circle class="cls-5" cx="6.1" cy="65.6" r="1.4"/><line class="cls-6" x1="1" y1="65.6" x2="3.3" y2="65.6"/><line class="cls-6" x1="20.7" y1="69.2" x2="23" y2="69.2"/><circle class="cls-5" cx="17.9" cy="69.2" r="1.4"/><line class="cls-6" x1="1" y1="69.2" x2="15.1" y2="69.2"/></svg>