<svg width="76" height="62" viewBox="0 0 76 62" fill="none" xmlns="http://www.w3.org/2000/svg">
<path d="M74.1322 31.4853V31.4559C74.1322 30.75 74.0881 30.0441 74.0146 29.3529C73.9852 29.1176 73.9411 28.8824 73.9117 28.6471C73.8528 28.1912 73.7793 27.7353 73.6764 27.2794C73.6175 27.0147 73.544 26.75 73.4705 26.4853C73.3675 26.0735 73.2646 25.6765 73.1322 25.2794C73.044 25.0147 72.9411 24.75 72.8381 24.4853C72.6911 24.1029 72.544 23.7206 72.3822 23.3529C72.2646 23.1029 72.1469 22.8529 72.0146 22.6029C71.8381 22.2353 71.6469 21.8824 71.4411 21.5294C71.3087 21.2941 71.1617 21.0588 71.0146 20.8382C70.794 20.5 70.5734 20.1618 70.3234 19.8235C70.1617 19.6029 70.0146 19.3971 69.8528 19.1912C69.5881 18.8676 69.3234 18.5441 69.044 18.2353C68.8675 18.0441 68.7058 17.8529 68.5293 17.6765C68.2352 17.3676 67.9264 17.0735 67.6028 16.7794C67.4705 16.6618 67.3528 16.5441 67.2205 16.4265L61.4117 47.3824L37.9117 42.9706C37.9999 43.0882 38.0882 43.2059 38.1764 43.3235C38.4852 43.75 38.8087 44.1471 39.147 44.5441C39.3087 44.7206 39.4705 44.8971 39.6323 45.0735C39.9705 45.4412 40.3382 45.7941 40.7058 46.1324C40.8823 46.2941 41.044 46.4412 41.2205 46.6029C41.6617 46.9706 42.1029 47.3235 42.5734 47.6618C42.6911 47.75 42.8087 47.8529 42.9264 47.9265C43.5293 48.3382 44.147 48.7206 44.794 49.0588C44.9411 49.1324 45.0882 49.2059 45.2352 49.2794C45.7352 49.5294 46.2499 49.7647 46.7646 49.9706C46.9999 50.0588 47.2352 50.1471 47.4852 50.2353C47.9411 50.3971 48.4117 50.5441 48.8823 50.6765C49.147 50.75 49.397 50.8235 49.6617 50.8824C50.1617 51 50.6617 51.0882 51.1764 51.1618C51.4117 51.1912 51.647 51.25 51.897 51.2647C52.647 51.353 53.397 51.3971 54.1617 51.4118C54.1617 51.4118 54.1617 51.4118 54.1764 51.4118C65.1911 51.4118 74.1028 42.4853 74.1028 31.4853H74.1322Z" fill="#A6539C"/>
<path d="M34.2647 31.4853C34.2647 20.4706 43.1911 11.5441 54.2058 11.5441C59.2058 11.5441 63.7646 13.3824 67.2499 16.4118L68.4999 9.75L24.397 1.48529L22.2058 13.1912L33.25 31.603H18.75L17.3382 39.1324L37.9117 42.9853C35.6176 39.7353 34.25 35.7647 34.25 31.4853H34.2647Z" fill="#F6AB00"/>
<path d="M17.7499 5.76471L2.24994 31.603H18.7499L22.2058 13.1912L17.7499 5.76471Z" fill="#2BB6A8"/>
<path d="M68.6323 15.9559L69.9852 8.7353L23.3823 0L21.5735 9.66177L17.75 3.29412L0 32.8824H17.2206L15.8529 40.1471L37.1912 44.1471C38.2647 45.5736 39.5 46.853 40.8529 47.9559L51.9853 61.5589L52.1911 52.5883C52.8529 52.6471 53.5147 52.6912 54.1911 52.6912C65.8823 52.6912 75.397 43.1765 75.397 31.4853C75.397 25.5882 72.9264 19.9706 68.6176 15.9559H68.6323ZM38.6764 41.8236C36.6176 38.75 35.5441 35.1912 35.5441 31.4853C35.5441 21.1912 43.9117 12.8235 54.2058 12.8235C58.4558 12.8235 62.5588 14.2794 65.8676 16.9265L60.4411 45.9118L38.6912 41.8383L38.6764 41.8236ZM25.4117 2.97059L67 10.7647L66.397 14L66.3676 14.1177C62.8088 11.6177 58.5588 10.2647 54.1911 10.2647C43.3529 10.2647 34.397 18.4265 33.1323 28.9265L23.5441 12.9412L25.4117 2.95588V2.97059ZM31 30.3235H20.2941L22.8382 16.7206L31 30.3235ZM4.5 30.3235L17.75 8.2353L20.8676 13.4265L17.7059 30.3235H4.5147H4.5ZM19.8088 32.8677H33.0294C33.2206 35.7941 34 38.6177 35.3382 41.1912L35.0588 41.1324L18.8235 38.0883L19.8088 32.853V32.8677ZM54.1911 50.1324C49.3235 50.1324 44.6764 48.2206 41.2353 44.8824L61.4264 48.6618C59.2058 49.603 56.7647 50.1177 54.1911 50.1177V50.1324ZM62.5882 48.1324L68.0588 18.9853C71.1323 22.3971 72.8529 26.8382 72.8529 31.4706C72.8529 38.7353 68.6764 45.0588 62.5882 48.1324Z" fill="white"/>
</svg>
