<svg width="16" height="16" viewBox="0 0 16 16" fill="none" xmlns="http://www.w3.org/2000/svg">
<path d="M13.3332 3.38987C13.3332 3.56668 13.2629 3.73625 13.1379 3.86128L8.99984 7.99935L13.1379 12.1374C13.2629 12.2624 13.3332 12.432 13.3332 12.6088V12.666C13.3332 13.0342 13.0347 13.3327 12.6665 13.3327H12.6093C12.4325 13.3327 12.2629 13.2624 12.1379 13.1374L7.99984 8.99935L3.86177 13.1374C3.73674 13.2624 3.56717 13.3327 3.39036 13.3327H3.33317C2.96498 13.3327 2.6665 13.0342 2.6665 12.666V12.6088C2.6665 12.432 2.73674 12.2624 2.86177 12.1374L6.99984 7.99935L2.86177 3.86128C2.73674 3.73625 2.6665 3.56668 2.6665 3.38987V3.33268C2.6665 2.96449 2.96498 2.66602 3.33317 2.66602H3.39036C3.56717 2.66602 3.73674 2.73625 3.86177 2.86128L7.99984 6.99935L12.1379 2.86128C12.2629 2.73625 12.4325 2.66602 12.6093 2.66602H12.6665C13.0347 2.66602 13.3332 2.96449 13.3332 3.33268V3.38987Z" fill="#FFFFFF"/>
</svg>
