<?xml version="1.0" encoding="UTF-8"?><svg id="a" xmlns="http://www.w3.org/2000/svg" viewBox="0 0 28 84"><defs><style>.b{fill:#2bb6a8;}.c{fill:#252727;}.d{fill:#898a89;}.e{fill:#333536;}</style></defs><g><rect class="e" y="28" width="28" height="28" rx="2" ry="2"/><path class="b" d="M14.32,52c-2.67,0-5.18-1.04-7.07-2.93-3.9-3.9-3.9-10.24,0-14.14,1.89-1.89,4.4-2.93,7.07-2.93s5.18,1.04,7.07,2.93c.39,.39,.39,1.02,0,1.41s-1.02,.39-1.41,0c-3.12-3.12-8.2-3.12-11.31,0-3.12,3.12-3.12,8.2,0,11.31,3.12,3.12,8.19,3.12,11.31,0,.39-.39,1.02-.39,1.41,0s.39,1.02,0,1.41c-1.89,1.89-4.4,2.93-7.07,2.93Z"/><path class="b" d="M15.35,38.19c-.4-.13-.81-.19-1.21-.19s-.8,.07-1.17,.18c.47-.02,.92,.13,1.26,.47,.67,.67,.61,1.83-.14,2.58s-1.91,.81-2.58,.14c-.58-.58-.61-1.52-.13-2.25-.47,.45-.84,1.02-1.05,1.68-.67,2.11,.5,4.35,2.61,5.02,.4,.13,.81,.19,1.21,.19,1.7,0,3.27-1.09,3.81-2.79,.67-2.11-.5-4.35-2.61-5.02Z"/></g><rect class="e" width="28" height="28" rx="2" ry="2"/><path class="d" d="M14.32,24c-2.67,0-5.18-1.04-7.07-2.93-3.9-3.9-3.9-10.24,0-14.14,1.89-1.89,4.4-2.93,7.07-2.93s5.18,1.04,7.07,2.93c.39,.39,.39,1.02,0,1.41s-1.02,.39-1.41,0c-3.12-3.12-8.2-3.12-11.31,0-3.12,3.12-3.12,8.2,0,11.31,3.12,3.12,8.19,3.12,11.31,0,.39-.39,1.02-.39,1.41,0s.39,1.02,0,1.41c-1.89,1.89-4.4,2.93-7.07,2.93Z"/><g><rect class="c" y="56" width="28" height="28" rx="2" ry="2"/><path class="b" d="M14.32,80c-2.67,0-5.18-1.04-7.07-2.93-3.9-3.9-3.9-10.24,0-14.14,1.89-1.89,4.4-2.93,7.07-2.93s5.18,1.04,7.07,2.93c.39,.39,.39,1.02,0,1.41s-1.02,.39-1.41,0c-3.12-3.12-8.2-3.12-11.31,0-3.12,3.12-3.12,8.2,0,11.31,3.12,3.12,8.19,3.12,11.31,0,.39-.39,1.02-.39,1.41,0s.39,1.02,0,1.41c-1.89,1.89-4.4,2.93-7.07,2.93Z"/><path class="b" d="M15.35,66.19c-.4-.13-.81-.19-1.21-.19s-.8,.07-1.17,.18c.47-.02,.92,.13,1.26,.47,.67,.67,.61,1.83-.14,2.58s-1.91,.81-2.58,.14c-.58-.58-.61-1.52-.13-2.25-.47,.45-.84,1.02-1.05,1.68-.67,2.11,.5,4.35,2.61,5.02,.4,.13,.81,.19,1.21,.19,1.7,0,3.27-1.09,3.81-2.79,.67-2.11-.5-4.35-2.61-5.02Z"/></g></svg>