<svg width="8" height="12" viewBox="0 0 8 12" fill="none" xmlns="http://www.w3.org/2000/svg">
<path d="M2.79476 7.96173V8.12212H4.65523V7.96173C4.66228 6.94109 5.01464 6.46723 5.81097 5.97878C6.73416 5.40285 7.33317 4.64466 7.33317 3.44177C7.33317 1.64107 5.94487 0.583984 3.9787 0.583984C2.17461 0.583984 0.70174 1.56817 0.666504 3.61673H2.66791C2.6961 2.76377 3.30921 2.31178 3.9646 2.30449C4.64818 2.31178 5.19786 2.78564 5.19082 3.51467C5.19786 4.18537 4.7257 4.63737 4.11964 5.04563C3.27397 5.5924 2.80181 6.14646 2.79476 7.96173ZM2.58335 10.1926C2.56925 10.8705 3.10484 11.4173 3.76728 11.4173C4.39448 11.4173 4.93712 10.8705 4.93712 10.1926C4.93712 9.52185 4.39448 8.97508 3.76728 8.98237C3.10484 8.97508 2.56925 9.52185 2.58335 10.1926Z" fill="#DEDEDE"/>
</svg>
