<svg width="16" height="16" viewBox="0 0 16 16" fill="none" xmlns="http://www.w3.org/2000/svg">
<path fill-rule="evenodd" clip-rule="evenodd" d="M11.0441 2.37012C10.9309 2.01975 10.5552 1.82748 10.2048 1.94066C9.85444 2.05384 9.66216 2.42962 9.77535 2.77998L9.86314 3.05175C7.28847 1.89202 4.22933 2.94534 2.9288 5.48709C2.24531 6.8229 2.17972 8.31338 2.62595 9.62943C2.74418 9.97812 3.12269 10.1649 3.47138 10.0467C3.82007 9.92849 4.0069 9.54997 3.88867 9.20128C3.55336 8.21236 3.60306 7.09647 4.11577 6.09443C5.07821 4.21346 7.32476 3.41933 9.23933 4.23411L8.99012 4.31462C8.63976 4.4278 8.44749 4.80358 8.56067 5.15394C8.67385 5.5043 9.04963 5.69657 9.39999 5.58339L11.1943 5.00375C11.5447 4.89057 11.7369 4.51479 11.6238 4.16443L11.0441 2.37012ZM4.31747 13.3582C4.39343 13.7185 4.74707 13.949 5.10734 13.873C5.46761 13.797 5.69808 13.4434 5.62211 13.0831L5.56318 12.8037C8.00264 14.226 11.1551 13.4979 12.714 11.1059C13.5332 9.84881 13.7541 8.37333 13.4478 7.01788C13.3666 6.65875 13.0097 6.43341 12.6506 6.51457C12.2914 6.59573 12.0661 6.95266 12.1473 7.3118C12.3774 8.33033 12.2115 9.43492 11.5969 10.3779C10.4433 12.1481 8.12607 12.7032 6.30708 11.6929L6.56333 11.6389C6.92359 11.5629 7.15406 11.2093 7.07809 10.849C7.00213 10.4888 6.64849 10.2583 6.28822 10.3343L4.44317 10.7233C4.08291 10.7993 3.85244 11.1529 3.92841 11.5132L4.31747 13.3582Z" fill="#DEDEDE"/>
</svg>
