<svg width="42" height="96" viewBox="0 0 42 96" fill="none" xmlns="http://www.w3.org/2000/svg">
<path d="M0.292889 7.29289C-0.0976349 7.68342 -0.0976349 8.31658 0.292889 8.70711L6.65685 15.0711C7.04738 15.4616 7.68054 15.4616 8.07106 15.0711C8.46159 14.6805 8.46159 14.0474 8.07106 13.6569L2.41421 8L8.07106 2.34315C8.46159 1.95262 8.46159 1.31946 8.07106 0.928932C7.68054 0.538408 7.04737 0.538408 6.65685 0.928932L0.292889 7.29289ZM42 96L42 20L40 20L40 96L42 96ZM29 7L0.999996 7L0.999996 9L29 9L29 7ZM42 20C42 12.8203 36.1797 7 29 7L29 9C35.0751 9 40 13.9249 40 20L42 20Z" fill="#FFF612"/>
</svg>
