<svg id="레이어_1" data-name="레이어 1" xmlns="http://www.w3.org/2000/svg" viewBox="0 0 28 84"><defs><style>.cls-1{fill:#252827;}.cls-2{fill:#333536;}.cls-3{fill:#2bb6a8;}.cls-4{fill:#898a89;}</style></defs><rect class="cls-1" y="56" width="28" height="28" rx="2"/><rect class="cls-2" y="28" width="28" height="28" rx="2"/><rect class="cls-2" width="28" height="28" rx="2"/><path class="cls-3" d="M11.78,50.05h0a1.52,1.52,0,0,1-1.21-.68L5.24,41.3a1.51,1.51,0,0,1,.44-2.08,1.49,1.49,0,0,1,2.07.44l4.11,6.27,8.43-11.37a1.5,1.5,0,0,1,2.41,1.79L13,49.44A1.52,1.52,0,0,1,11.78,50.05Z"/><path class="cls-4" d="M11.78,22.05h0a1.52,1.52,0,0,1-1.21-.68L5.24,13.3a1.51,1.51,0,0,1,.44-2.08,1.49,1.49,0,0,1,2.07.44l4.11,6.27L20.29,6.56A1.5,1.5,0,1,1,22.7,8.35L13,21.44A1.52,1.52,0,0,1,11.78,22.05Z"/><path class="cls-3" d="M11.78,78.05h0a1.52,1.52,0,0,1-1.21-.68L5.24,69.3a1.51,1.51,0,0,1,.44-2.08,1.49,1.49,0,0,1,2.07.44l4.11,6.27,8.43-11.37a1.5,1.5,0,0,1,2.41,1.79L13,77.44A1.52,1.52,0,0,1,11.78,78.05Z"/></svg>