<svg id="레이어_1" data-name="레이어 1" xmlns="http://www.w3.org/2000/svg" viewBox="0 0 28 84">
<defs>
<style>.cls-1{fill:#333536;}.cls-2{fill:#252727;}.cls-3,.cls-4,.cls-5,.cls-6{fill:none;stroke-linecap:round;stroke-linejoin:round;}.cls-3,.cls-4{stroke:#898a89;}.cls-4,.cls-6{stroke-width:2px;}.cls-5,.cls-6{stroke:#2bb6a8;}</style>
</defs>
<line class="cls-3" x1="10.8" y1="5" x2="10.8" y2="23"/>
<line class="cls-3" x1="17.2" y1="5" x2="17.2" y2="23"/>

<line class="cls-3" x1="23" y1="11" x2="5" y2="11"/>
<line class="cls-3" x1="23" y1="17.2" x2="5" y2="17.2"/>
<rect class="cls-4" x="4" y="4" width="20" height="20"/>

<line class="cls-5" x1="10.8" y1="33" x2="10.8" y2="51"/>
<line class="cls-5" x1="17.2" y1="33" x2="17.2" y2="51"/>

<line class="cls-5" x1="23" y1="39" x2="5" y2="39"/>
<line class="cls-5" x1="23" y1="45.3" x2="5" y2="45.3"/>
<rect class="cls-6" x="4" y="32" width="20" height="20"/>

<line class="cls-5" x1="10.8" y1="61" x2="10.8" y2="79"/>
<line class="cls-5" x1="17.2" y1="61" x2="17.2" y2="79"/>

<line class="cls-5" x1="23" y1="66.8" x2="5" y2="66.8"/>
<line class="cls-5" x1="23" y1="73.2" x2="5" y2="73.2"/>
<rect class="cls-6" x="4" y="60" width="20" height="20"/>
</svg>