<svg width="42" height="40" viewBox="0 0 42 40" fill="none" xmlns="http://www.w3.org/2000/svg">
<path d="M41.7071 7.29289C42.0976 7.68342 42.0976 8.31658 41.7071 8.70711L35.3431 15.0711C34.9526 15.4616 34.3195 15.4616 33.9289 15.0711C33.5384 14.6805 33.5384 14.0474 33.9289 13.6569L39.5858 8L33.9289 2.34315C33.5384 1.95262 33.5384 1.31946 33.9289 0.928932C34.3195 0.538408 34.9526 0.538408 35.3431 0.928932L41.7071 7.29289ZM-3.8147e-06 40L-4.68893e-06 20L2 20L2 40L-3.8147e-06 40ZM13 7L41 7L41 9L13 9L13 7ZM-4.68893e-06 20C-5.00276e-06 12.8203 5.8203 7 13 7L13 9C6.92486 9 2 13.9249 2 20L-4.68893e-06 20Z" fill="#FFF612"/>
</svg>
