<svg width="20" height="18" viewBox="0 0 20 18" fill="none" xmlns="http://www.w3.org/2000/svg">
<g clip-path="url(#clip0_650_19658)">
<path d="M17.8346 5.19654C16.9077 4.3927 15.7 3.90039 14.3769 3.90039C11.4577 3.90039 9.09229 6.26578 9.09229 9.18501C9.09229 10.3235 9.45382 11.3735 10.0654 12.235L16.3 13.4042L17.8384 5.1927L17.8346 5.19654Z" fill="black"/>
<path d="M19.6616 9.18555C19.6616 9.18555 19.6616 9.17786 19.6616 9.17401C19.6616 8.98555 19.65 8.80093 19.6308 8.61632C19.6231 8.55478 19.6116 8.49324 19.6039 8.42785C19.5847 8.30478 19.5693 8.18555 19.5424 8.06632C19.527 7.99709 19.5077 7.92785 19.4885 7.85478C19.4616 7.74709 19.4308 7.63939 19.3962 7.53555C19.3731 7.46632 19.3462 7.39709 19.3193 7.32785C19.2808 7.22785 19.2423 7.12785 19.2 7.02785C19.1693 6.95862 19.1385 6.89324 19.1039 6.82785C19.0577 6.7317 19.0077 6.63555 18.9539 6.54324C18.9193 6.4817 18.8808 6.42016 18.8424 6.35862C18.7847 6.26632 18.7231 6.17785 18.6616 6.08939C18.6193 6.0317 18.577 5.97785 18.5347 5.92016C18.4654 5.8317 18.3962 5.75093 18.3231 5.66632C18.277 5.61632 18.2347 5.56632 18.1885 5.51632C18.1077 5.43555 18.027 5.35478 17.9424 5.27785C17.9077 5.24709 17.877 5.21632 17.8385 5.18555L16.3 13.3971L10.0654 12.2279C10.0885 12.2586 10.1116 12.2894 10.1347 12.3202C10.2154 12.4317 10.3039 12.5394 10.3924 12.6432C10.4347 12.6894 10.477 12.7394 10.5193 12.7855C10.6116 12.8817 10.7039 12.9779 10.8039 13.0663C10.85 13.1086 10.8924 13.1509 10.9385 13.1894C11.0539 13.2894 11.1731 13.3817 11.2962 13.4702C11.327 13.4932 11.3577 13.5202 11.3924 13.5432C11.55 13.6509 11.7154 13.7509 11.8847 13.8432C11.9231 13.8625 11.9654 13.8817 12.0039 13.9009C12.1347 13.9663 12.2731 14.0317 12.4116 14.0855C12.4731 14.1086 12.5385 14.1317 12.6 14.1548C12.7231 14.1971 12.8462 14.2394 12.9693 14.274C13.0385 14.2932 13.1077 14.3125 13.177 14.3279C13.3077 14.3586 13.4424 14.3817 13.577 14.4009C13.6424 14.4125 13.7039 14.424 13.7693 14.4317C13.9654 14.4548 14.1654 14.4702 14.3693 14.4702C14.3693 14.4702 14.3693 14.4702 14.3731 14.4702C17.2924 14.4702 19.6577 12.1048 19.6616 9.1817V9.18555Z" fill="#A5539B"/>
<path d="M9.08862 9.18627C9.08862 6.26704 11.454 3.89781 14.3771 3.89781C15.7002 3.89781 16.9117 4.38627 17.8386 5.19012L18.1694 3.42088L6.47323 1.23242L5.89247 4.33627L8.82324 9.21704H4.97708L4.604 11.2132L10.0617 12.2363C9.45016 11.3747 9.09247 10.3209 9.09247 9.18627H9.08862Z" fill="#F5AA00"/>
<path d="M5.88853 4.33594L4.97314 9.21671H8.8193L5.88853 4.33594Z" fill="black"/>
<path d="M4.70773 2.36719L0.596191 9.21719H4.97311L5.8885 4.33642L4.70773 2.36719Z" fill="#2BB6A8"/>
<path d="M18.2038 5.07055L18.5615 3.15517L6.20385 0.835938L5.72308 3.39748L4.70769 1.70901L0 9.55517H4.56538L4.20385 11.4821L9.86539 12.5436C10.15 12.9244 10.4769 13.2629 10.8385 13.5552L13.7923 17.1629L13.8462 14.7859C14.0231 14.8013 14.1962 14.8129 14.3731 14.8129C17.4731 14.8129 20 12.2898 20 9.18978C20 7.6244 19.3462 6.13594 18.2038 5.0744V5.07055ZM10.2577 11.9321C9.71154 11.1167 9.42692 10.1706 9.42692 9.18978C9.42692 6.45901 11.6462 4.23978 14.3769 4.23978C15.5038 4.23978 16.5923 4.6244 17.4692 5.32825L16.0269 13.0167L10.2577 11.9359V11.9321ZM6.74231 1.6244L17.7731 3.69363L17.6115 4.55132L17.6038 4.58594C16.6615 3.9244 15.5346 3.56286 14.3731 3.56286C11.5 3.56286 9.12308 5.72824 8.78846 8.51286L6.24231 4.27055L6.73846 1.6244H6.74231ZM8.22308 8.87825H5.38077L6.05769 5.27055L8.22308 8.87825ZM1.19231 8.87825L4.70769 3.02055L5.53462 4.39748L4.69615 8.87825H1.19231ZM5.25385 9.55517H8.76154C8.81154 10.3321 9.01923 11.0782 9.37308 11.7629L9.29615 11.7475L4.99231 10.9398L5.25385 9.55132V9.55517ZM14.3731 14.1359C13.0808 14.1359 11.85 13.6282 10.9346 12.7436L16.2885 13.7475C15.7 13.9975 15.05 14.1359 14.3692 14.1359H14.3731ZM16.6 13.6052L18.05 5.8744C18.8654 6.77825 19.3231 7.95517 19.3231 9.18594C19.3231 11.1129 18.2154 12.7898 16.6 13.6052Z" fill="white"/>
</g>
<defs>
<clipPath id="clip0_650_19658">
<rect width="20" height="16.3269" fill="white" transform="translate(0 0.835938)"/>
</clipPath>
</defs>
</svg>
